<svg width="1000" height="720" viewBox="0 0 1000 720" fill="none" xmlns="http://www.w3.org/2000/svg">
<g clip-path="url(#clip0_402_2)">
<path d="M1000 295.711H998.311V242.713C998.311 238.685 997.619 234.696 996.273 230.975C994.927 227.253 992.955 223.872 990.468 221.023C987.982 218.175 985.03 215.915 981.781 214.374C978.532 212.832 975.05 212.039 971.534 212.039H873.514C869.997 212.039 866.515 212.832 863.266 214.374C860.017 215.915 857.066 218.175 854.579 221.023C852.093 223.872 850.12 227.253 848.774 230.975C847.429 234.696 846.736 238.685 846.736 242.713V533.465C846.736 537.493 847.429 541.482 848.774 545.203C850.12 548.925 852.093 552.306 854.579 555.154C857.066 558.003 860.017 560.262 863.266 561.804C866.515 563.345 869.997 564.139 873.514 564.139H971.534C975.05 564.139 978.532 563.345 981.781 561.804C985.03 560.262 987.982 558.003 990.468 555.154C992.955 552.306 994.927 548.925 996.273 545.203C997.619 541.482 998.311 537.493 998.311 533.465V333.436H1000V295.711Z" fill="#3F3D56"/>
<path d="M992.613 244.515V534.844C992.613 540.92 990.506 546.747 986.755 551.044C983.004 555.34 977.917 557.754 972.613 557.754H874.122C871.496 557.754 868.896 557.161 866.47 556.01C864.044 554.858 861.84 553.17 859.983 551.043C858.127 548.915 856.655 546.39 855.65 543.61C854.646 540.831 854.13 537.852 854.131 534.844V244.515C854.131 238.442 856.237 232.617 859.986 228.323C863.735 224.028 868.82 221.616 874.122 221.615H886.071C885.484 223.268 885.261 225.06 885.421 226.834C885.581 228.608 886.119 230.31 886.988 231.79C887.856 233.271 889.029 234.484 890.403 235.323C891.777 236.163 893.31 236.603 894.867 236.605H951.023C952.582 236.608 954.117 236.171 955.493 235.333C956.87 234.495 958.045 233.282 958.914 231.8C959.784 230.318 960.321 228.614 960.479 226.837C960.637 225.061 960.41 223.268 959.819 221.615H972.613C977.916 221.615 983.002 224.027 986.752 228.322C990.503 232.616 992.611 238.441 992.613 244.515Z" fill="#D0CDE1"/>
<path d="M973.967 370.256H859.474V405.647H973.967V370.256Z" fill="#45B69C"/>
<path d="M978.51 399.402H867.652C866.929 399.401 866.236 399.072 865.725 398.486C865.214 397.901 864.927 397.107 864.926 396.279V365.052C864.927 364.224 865.214 363.43 865.725 362.845C866.236 362.259 866.929 361.93 867.652 361.929H978.51C979.233 361.93 979.926 362.259 980.437 362.845C980.948 363.43 981.236 364.224 981.236 365.052V396.279C981.236 397.107 980.948 397.901 980.437 398.486C979.926 399.072 979.233 399.401 978.51 399.402ZM867.652 364.011C867.411 364.011 867.18 364.121 867.01 364.316C866.839 364.511 866.743 364.776 866.743 365.052V396.279C866.743 396.555 866.839 396.82 867.009 397.015C867.18 397.21 867.411 397.32 867.652 397.32H978.51C978.751 397.32 978.982 397.21 979.153 397.015C979.323 396.82 979.419 396.555 979.419 396.279V365.052C979.419 364.776 979.323 364.511 979.153 364.316C978.982 364.121 978.751 364.011 978.51 364.011H867.652Z" fill="#3F3D56"/>
<path d="M886.734 390.034H872.195V392.115H886.734V390.034Z" fill="#3F3D56"/>
<path d="M906.725 390.034H892.186V392.115H906.725V390.034Z" fill="#3F3D56"/>
<path d="M926.716 390.034H912.177V392.115H926.716V390.034Z" fill="#3F3D56"/>
<path d="M946.707 390.034H932.168V392.115H946.707V390.034Z" fill="#3F3D56"/>
<path d="M966.698 390.034H952.159V392.115H966.698V390.034Z" fill="#3F3D56"/>
<path opacity="0.1" d="M992.613 505.324V534.844C992.613 540.92 990.506 546.747 986.755 551.044C983.004 555.34 977.917 557.754 972.613 557.754H874.122C871.496 557.754 868.896 557.161 866.47 556.01C864.044 554.858 861.84 553.17 859.983 551.043C858.127 548.915 856.655 546.39 855.65 543.61C854.646 540.831 854.13 537.852 854.131 534.844V399.048L992.613 505.324Z" fill="black"/>
<path d="M520.537 478.51H90.7327V720H520.537V478.51Z" fill="#D0CDE1"/>
<path opacity="0.1" d="M411.269 720H92.55C92.0685 719.998 91.607 719.778 91.2665 719.388C90.926 718.998 90.7341 718.47 90.7327 717.918V480.592C90.7341 480.04 90.926 479.512 91.2665 479.122C91.607 478.732 92.0685 478.512 92.55 478.51H96.5846L411.269 720Z" fill="black"/>
<path d="M955.793 510.778H289.733V512.86H955.793V510.778Z" fill="#3F3D56"/>
<path d="M500.311 4.49437H309.953V0H223.637V4.49437H32.4936C30.8027 4.49437 29.1283 4.87589 27.5661 5.61715C26.0038 6.3584 24.5844 7.44488 23.3887 8.81455C22.193 10.1842 21.2446 11.8102 20.5975 13.5998C19.9504 15.3893 19.6173 17.3074 19.6173 19.2444V317.834C19.6173 321.746 20.9739 325.497 23.3887 328.263C25.8035 331.03 29.0786 332.584 32.4936 332.584H500.311C503.726 332.584 507.002 331.03 509.416 328.263C511.831 325.497 513.188 321.746 513.188 317.834V19.2444C513.188 17.3074 512.855 15.3893 512.208 13.5998C511.561 11.8102 510.612 10.1842 509.416 8.81455C508.221 7.44488 506.801 6.3584 505.239 5.61715C503.677 4.87589 502.002 4.49437 500.311 4.49437V4.49437Z" fill="#3F3D56"/>
<path d="M495.921 30.5576H36.8844V327.194H495.921V30.5576Z" fill="#D0CDE1"/>
<path d="M266.01 22.4718C268.61 22.4718 270.718 20.0572 270.718 17.0786C270.718 14.0999 268.61 11.6853 266.01 11.6853C263.41 11.6853 261.302 14.0999 261.302 17.0786C261.302 20.0572 263.41 22.4718 266.01 22.4718Z" fill="#45B69C"/>
<path d="M173.422 141.258H162.518C161.795 141.257 161.102 140.928 160.591 140.342C160.08 139.757 159.793 138.963 159.792 138.135V125.644C159.793 124.816 160.08 124.023 160.591 123.437C161.102 122.852 161.795 122.522 162.518 122.521H173.422C174.145 122.522 174.838 122.852 175.349 123.437C175.86 124.023 176.148 124.816 176.148 125.644V138.135C176.148 138.963 175.86 139.757 175.349 140.342C174.838 140.928 174.145 141.257 173.422 141.258V141.258ZM162.518 124.603C162.277 124.604 162.046 124.713 161.876 124.909C161.706 125.104 161.61 125.368 161.609 125.644V138.135C161.61 138.411 161.706 138.676 161.876 138.871C162.046 139.066 162.277 139.176 162.518 139.176H173.422C173.663 139.176 173.894 139.066 174.064 138.871C174.235 138.676 174.331 138.411 174.331 138.135V125.644C174.331 125.368 174.235 125.104 174.064 124.909C173.894 124.713 173.663 124.604 173.422 124.603H162.518Z" fill="#3F3D56"/>
<path d="M367.879 139.176H160.701V141.258H367.879V139.176Z" fill="#3F3D56"/>
<path d="M362.427 196.426H314.267V213.08H362.427V196.426Z" fill="#45B69C"/>
<path d="M366.062 208.916H321.537C320.814 208.916 320.121 208.586 319.61 208.001C319.099 207.415 318.811 206.622 318.811 205.794V193.303C318.811 192.475 319.099 191.681 319.61 191.096C320.121 190.51 320.814 190.181 321.537 190.18H366.062C366.785 190.181 367.478 190.51 367.989 191.096C368.5 191.681 368.787 192.475 368.788 193.303V205.794C368.787 206.622 368.5 207.415 367.989 208.001C367.478 208.586 366.785 208.916 366.062 208.916V208.916ZM321.537 192.262C321.296 192.262 321.065 192.372 320.895 192.567C320.724 192.762 320.628 193.027 320.628 193.303V205.794C320.628 206.07 320.724 206.334 320.895 206.529C321.065 206.724 321.296 206.834 321.537 206.835H366.062C366.303 206.834 366.534 206.724 366.704 206.529C366.874 206.334 366.97 206.07 366.971 205.794V193.303C366.97 193.027 366.874 192.762 366.704 192.567C366.534 192.372 366.303 192.262 366.062 192.262H321.537Z" fill="#3F3D56"/>
<path d="M730.441 215.162H639.574V288.025H730.441V215.162Z" fill="#45B69C"/>
<path d="M739.528 282.3H652.295C651.332 282.299 650.408 281.86 649.726 281.079C649.045 280.299 648.662 279.24 648.661 278.136V209.437C648.662 208.333 649.045 207.275 649.726 206.494C650.408 205.713 651.332 205.274 652.295 205.273H739.528C740.492 205.274 741.416 205.713 742.097 206.494C742.779 207.275 743.162 208.333 743.163 209.437V278.136C743.162 279.24 742.779 280.299 742.097 281.079C741.416 281.86 740.492 282.299 739.528 282.3V282.3ZM652.295 209.437V278.136H739.531L739.528 209.437H652.295Z" fill="#3F3D56"/>
<path d="M729.533 206.835H725.898C725.898 197.725 722.739 188.988 717.115 182.546C711.492 176.104 703.865 172.485 695.912 172.485C687.959 172.485 680.332 176.104 674.708 182.546C669.085 188.988 665.925 197.725 665.925 206.835H662.291C662.291 196.62 665.833 186.824 672.138 179.602C678.443 172.379 686.995 168.321 695.912 168.321C704.829 168.321 713.38 172.379 719.686 179.602C725.991 186.824 729.533 196.62 729.533 206.835V206.835Z" fill="#3F3D56"/>
<path d="M704.999 235.46C705 233.647 704.589 231.865 703.805 230.291C703.021 228.716 701.892 227.403 700.529 226.482C699.166 225.561 697.617 225.064 696.035 225.039C694.453 225.015 692.892 225.464 691.508 226.342C690.124 227.221 688.964 228.498 688.143 230.047C687.322 231.597 686.869 233.365 686.828 235.177C686.787 236.989 687.159 238.782 687.909 240.378C688.658 241.975 689.759 243.319 691.101 244.279V255.451C691.101 256.175 691.226 256.891 691.467 257.56C691.709 258.228 692.063 258.836 692.51 259.348C692.957 259.859 693.487 260.265 694.071 260.542C694.654 260.819 695.28 260.962 695.912 260.962V260.962C697.188 260.962 698.411 260.381 699.313 259.348C700.216 258.314 700.722 256.913 700.722 255.451V244.279C702.03 243.346 703.109 242.046 703.857 240.503C704.606 238.96 704.998 237.225 704.999 235.46V235.46Z" fill="#3F3D56"/>
<path d="M272.922 585.723H258.384V587.805H272.922V585.723Z" fill="#3F3D56"/>
<path d="M292.913 585.723H278.375V587.805H292.913V585.723Z" fill="#3F3D56"/>
<path d="M312.904 585.723H298.365V587.805H312.904V585.723Z" fill="#3F3D56"/>
<path d="M332.895 585.723H318.356V587.805H332.895V585.723Z" fill="#3F3D56"/>
<path d="M352.886 585.723H338.347V587.805H352.886V585.723Z" fill="#3F3D56"/>
<path d="M539.619 702.305H113.45C112.486 702.304 111.562 701.865 110.881 701.084C110.199 700.303 109.816 699.245 109.815 698.141V460.815C109.816 459.711 110.199 458.653 110.881 457.872C111.562 457.092 112.486 456.653 113.45 456.652H539.619C540.583 456.653 541.507 457.092 542.188 457.872C542.869 458.653 543.253 459.711 543.254 460.815V698.141C543.253 699.245 542.869 700.304 542.188 701.084C541.507 701.865 540.583 702.304 539.619 702.305V702.305ZM113.45 460.815V698.141H539.622L539.619 460.815H113.45Z" fill="#3F3D56"/>
<path d="M132.532 496.206C135.543 496.206 137.984 493.41 137.984 489.96C137.984 486.511 135.543 483.715 132.532 483.715C129.521 483.715 127.08 486.511 127.08 489.96C127.08 493.41 129.521 496.206 132.532 496.206Z" fill="#3F3D56"/>
<path d="M151.614 496.206C154.625 496.206 157.066 493.41 157.066 489.96C157.066 486.511 154.625 483.715 151.614 483.715C148.603 483.715 146.162 486.511 146.162 489.96C146.162 493.41 148.603 496.206 151.614 496.206Z" fill="#3F3D56"/>
<path d="M170.696 496.206C173.707 496.206 176.148 493.41 176.148 489.96C176.148 486.511 173.707 483.715 170.696 483.715C167.685 483.715 165.244 486.511 165.244 489.96C165.244 493.41 167.685 496.206 170.696 496.206Z" fill="#3F3D56"/>
<path d="M366.971 600.296H244.299C243.576 600.295 242.883 599.966 242.372 599.38C241.861 598.795 241.574 598.001 241.573 597.173V561.783C241.574 560.955 241.861 560.161 242.372 559.576C242.883 558.99 243.576 558.661 244.299 558.66H366.971C367.693 558.661 368.386 558.99 368.897 559.576C369.408 560.161 369.696 560.955 369.697 561.783V597.173C369.696 598.001 369.408 598.795 368.897 599.38C368.386 599.966 367.693 600.295 366.971 600.296V600.296ZM244.299 560.742C244.058 560.742 243.827 560.852 243.657 561.047C243.487 561.242 243.391 561.507 243.39 561.783V597.173C243.391 597.449 243.487 597.714 243.657 597.909C243.827 598.104 244.058 598.214 244.299 598.214H366.971C367.212 598.214 367.442 598.104 367.613 597.909C367.783 597.714 367.879 597.449 367.879 597.173V561.783C367.879 561.507 367.783 561.242 367.613 561.047C367.442 560.852 367.212 560.742 366.971 560.742H244.299Z" fill="#3F3D56"/>
<path d="M397.866 601.337C406.899 601.337 414.222 592.949 414.222 582.601C414.222 572.253 406.899 563.865 397.866 563.865C388.832 563.865 381.509 572.253 381.509 582.601C381.509 592.949 388.832 601.337 397.866 601.337Z" fill="#45B69C"/>
<path d="M403.318 599.255C399.903 599.255 396.565 598.095 393.726 595.922C390.887 593.749 388.674 590.66 387.367 587.046C386.06 583.432 385.718 579.456 386.384 575.619C387.051 571.783 388.695 568.259 391.11 565.493C393.524 562.727 396.6 560.844 399.949 560.081C403.298 559.318 406.77 559.709 409.925 561.206C413.079 562.703 415.776 565.238 417.673 568.49C419.57 571.743 420.583 575.566 420.583 579.478C420.577 584.721 418.757 589.748 415.52 593.456C412.283 597.163 407.895 599.249 403.318 599.255V599.255ZM403.318 561.782C400.262 561.782 397.276 562.82 394.735 564.765C392.195 566.709 390.215 569.473 389.046 572.706C387.877 575.94 387.571 579.497 388.167 582.93C388.763 586.363 390.234 589.516 392.395 591.99C394.555 594.465 397.307 596.15 400.304 596.833C403.3 597.516 406.406 597.166 409.229 595.826C412.052 594.487 414.464 592.219 416.162 589.309C417.859 586.399 418.765 582.978 418.765 579.478C418.761 574.786 417.132 570.288 414.236 566.971C411.34 563.654 407.413 561.788 403.318 561.782V561.782Z" fill="#3F3D56"/>
<path d="M403.56 586.865L394.763 576.786L397.333 573.843L403.075 580.419L419.097 554.338L422.069 556.736L403.56 586.865Z" fill="#3F3D56"/>
<path opacity="0.1" d="M394.149 327.195H36.8842V53.031L394.149 327.195Z" fill="black"/>
<path d="M526.077 321.797H481.277V318.1C481.277 318.004 481.26 317.908 481.228 317.819C481.196 317.73 481.149 317.65 481.089 317.581C481.03 317.513 480.96 317.459 480.882 317.423C480.804 317.386 480.721 317.367 480.637 317.367H465.277C465.193 317.367 465.11 317.386 465.032 317.423C464.954 317.459 464.884 317.513 464.825 317.581C464.765 317.65 464.718 317.73 464.686 317.819C464.654 317.908 464.637 318.004 464.637 318.1V321.797H455.037V318.1C455.037 318.004 455.021 317.908 454.988 317.819C454.956 317.73 454.909 317.65 454.85 317.581C454.79 317.513 454.72 317.459 454.642 317.423C454.564 317.386 454.481 317.367 454.397 317.367H439.037C438.953 317.367 438.87 317.386 438.792 317.423C438.715 317.459 438.644 317.513 438.585 317.581C438.525 317.65 438.478 317.73 438.446 317.819C438.414 317.908 438.397 318.004 438.397 318.1V321.797H428.797V318.1C428.797 318.004 428.781 317.908 428.749 317.819C428.716 317.73 428.669 317.65 428.61 317.581C428.55 317.513 428.48 317.459 428.402 317.423C428.325 317.386 428.241 317.367 428.157 317.367H412.797C412.713 317.367 412.63 317.386 412.552 317.423C412.475 317.459 412.404 317.513 412.345 317.581C412.285 317.65 412.238 317.73 412.206 317.819C412.174 317.908 412.157 318.004 412.157 318.1V321.797H402.557V318.1C402.557 318.004 402.541 317.908 402.509 317.819C402.477 317.73 402.429 317.65 402.37 317.581C402.311 317.513 402.24 317.459 402.162 317.423C402.085 317.386 402.002 317.367 401.917 317.367H386.558C386.474 317.367 386.39 317.386 386.313 317.423C386.235 317.459 386.164 317.513 386.105 317.581C386.046 317.65 385.998 317.73 385.966 317.819C385.934 317.908 385.918 318.004 385.918 318.1V321.797H376.318V318.1C376.318 318.004 376.301 317.908 376.269 317.819C376.237 317.73 376.19 317.65 376.13 317.581C376.071 317.513 376 317.459 375.923 317.423C375.845 317.386 375.762 317.367 375.678 317.367H360.318C360.234 317.367 360.15 317.386 360.073 317.423C359.995 317.459 359.925 317.513 359.865 317.581C359.806 317.65 359.759 317.73 359.726 317.819C359.694 317.908 359.678 318.004 359.678 318.1V321.797H350.078V318.1C350.078 318.004 350.061 317.908 350.029 317.819C349.997 317.73 349.95 317.65 349.89 317.581C349.831 317.513 349.76 317.459 349.683 317.423C349.605 317.386 349.522 317.367 349.438 317.367H334.078C333.994 317.367 333.911 317.386 333.833 317.423C333.755 317.459 333.685 317.513 333.625 317.581C333.566 317.65 333.519 317.73 333.487 317.819C333.454 317.908 333.438 318.004 333.438 318.1V321.797H323.838V318.1C323.838 318.004 323.821 317.908 323.789 317.819C323.757 317.73 323.71 317.65 323.651 317.581C323.591 317.513 323.521 317.459 323.443 317.423C323.365 317.386 323.282 317.367 323.198 317.367H202.879C202.795 317.367 202.711 317.386 202.634 317.423C202.556 317.459 202.486 317.513 202.426 317.581C202.367 317.65 202.32 317.73 202.287 317.819C202.255 317.908 202.239 318.004 202.239 318.1V321.797H192.639V318.1C192.639 318.004 192.622 317.908 192.59 317.819C192.558 317.73 192.511 317.65 192.451 317.581C192.392 317.513 192.321 317.459 192.244 317.423C192.166 317.386 192.083 317.367 191.999 317.367H176.639C176.555 317.367 176.472 317.386 176.394 317.423C176.316 317.459 176.246 317.513 176.186 317.581C176.127 317.65 176.08 317.73 176.048 317.819C176.015 317.908 175.999 318.004 175.999 318.1V321.797H166.399V318.1C166.399 318.004 166.382 317.908 166.35 317.819C166.318 317.73 166.271 317.65 166.211 317.581C166.152 317.513 166.082 317.459 166.004 317.423C165.926 317.386 165.843 317.367 165.759 317.367H150.399C150.315 317.367 150.232 317.386 150.154 317.423C150.076 317.459 150.006 317.513 149.946 317.581C149.887 317.65 149.84 317.73 149.808 317.819C149.776 317.908 149.759 318.004 149.759 318.1V321.797H140.159V318.1C140.159 318.004 140.143 317.908 140.11 317.819C140.078 317.73 140.031 317.65 139.972 317.581C139.912 317.513 139.842 317.459 139.764 317.423C139.686 317.386 139.603 317.367 139.519 317.367H124.159C124.075 317.367 123.992 317.386 123.914 317.423C123.837 317.459 123.766 317.513 123.707 317.581C123.647 317.65 123.6 317.73 123.568 317.819C123.536 317.908 123.519 318.004 123.519 318.1V321.797H113.919V318.1C113.919 318.004 113.903 317.908 113.871 317.819C113.838 317.73 113.791 317.65 113.732 317.581C113.672 317.513 113.602 317.459 113.524 317.423C113.447 317.386 113.363 317.367 113.279 317.367H97.9194C97.8353 317.367 97.7521 317.386 97.6744 317.423C97.5968 317.459 97.5262 317.513 97.4668 317.581C97.4074 317.65 97.3602 317.73 97.3281 317.819C97.2959 317.908 97.2794 318.004 97.2794 318.1V321.797H87.6795V318.1C87.6795 318.004 87.6629 317.908 87.6308 317.819C87.5986 317.73 87.5515 317.65 87.492 317.581C87.4326 317.513 87.362 317.459 87.2844 317.423C87.2067 317.386 87.1235 317.367 87.0395 317.367H71.6796C71.5955 317.367 71.5123 317.386 71.4346 317.423C71.357 317.459 71.2864 317.513 71.227 317.581C71.1676 317.65 71.1204 317.73 71.0883 317.819C71.0561 317.908 71.0395 318.004 71.0395 318.1V321.797H61.4396V318.1C61.4396 318.004 61.4231 317.908 61.3909 317.819C61.3587 317.73 61.3116 317.65 61.2522 317.581C61.1927 317.513 61.1222 317.459 61.0445 317.423C60.9669 317.386 60.8837 317.367 60.7996 317.367H45.4397C45.3557 317.367 45.2724 317.386 45.1948 317.423C45.1171 317.459 45.0466 317.513 44.9872 317.581C44.9277 317.65 44.8806 317.73 44.8484 317.819C44.8163 317.908 44.7997 318.004 44.7997 318.1V321.797H15.3599C13.3428 321.797 11.3455 322.252 9.48192 323.137C7.61837 324.021 5.9251 325.317 4.49881 326.951C3.07251 328.585 1.94111 330.524 1.1692 332.659C0.397293 334.794 -1.19329e-06 337.082 0 339.392V347.348C9.63984e-06 352.015 1.61828 356.49 4.49882 359.79C7.37936 363.09 11.2862 364.943 15.3599 364.943H526.077C528.094 364.943 530.091 364.488 531.955 363.604C533.818 362.72 535.511 361.424 536.938 359.79C538.364 358.156 539.495 356.216 540.267 354.082C541.039 351.947 541.437 349.659 541.437 347.348V339.392C541.437 337.082 541.039 334.794 540.267 332.659C539.495 330.524 538.364 328.585 536.938 326.951C535.511 325.317 533.818 324.021 531.955 323.137C530.091 322.252 528.094 321.797 526.077 321.797V321.797Z" fill="#3F3D56"/>
<path d="M386.053 226.612H146.162C145.439 226.611 144.746 226.282 144.235 225.696C143.724 225.111 143.437 224.317 143.436 223.489V108.99C143.437 108.162 143.724 107.368 144.235 106.783C144.746 106.197 145.439 105.868 146.162 105.867H386.053C386.776 105.868 387.468 106.197 387.98 106.783C388.491 107.368 388.778 108.162 388.779 108.99V223.489C388.778 224.317 388.491 225.111 387.98 225.696C387.468 226.282 386.776 226.611 386.053 226.612V226.612ZM146.162 107.949C145.921 107.949 145.69 108.059 145.52 108.254C145.349 108.449 145.254 108.714 145.253 108.99V223.489C145.254 223.765 145.349 224.03 145.52 224.225C145.69 224.42 145.921 224.53 146.162 224.53H386.053C386.294 224.53 386.525 224.42 386.695 224.225C386.865 224.03 386.961 223.765 386.961 223.489V108.99C386.961 108.714 386.865 108.449 386.695 108.254C386.525 108.059 386.294 107.949 386.053 107.949H146.162Z" fill="#3F3D56"/>
<path d="M173.422 172.485H162.518C161.795 172.484 161.102 172.155 160.591 171.569C160.08 170.984 159.793 170.19 159.792 169.362V156.871C159.793 156.043 160.08 155.25 160.591 154.664C161.102 154.079 161.795 153.749 162.518 153.749H173.422C174.145 153.749 174.838 154.079 175.349 154.664C175.86 155.25 176.148 156.043 176.148 156.871V169.362C176.148 170.19 175.86 170.984 175.349 171.569C174.838 172.155 174.145 172.484 173.422 172.485V172.485ZM162.518 155.83C162.277 155.831 162.046 155.94 161.876 156.136C161.706 156.331 161.61 156.595 161.609 156.871V169.362C161.61 169.638 161.706 169.903 161.876 170.098C162.046 170.293 162.277 170.403 162.518 170.403H173.422C173.663 170.403 173.894 170.293 174.064 170.098C174.235 169.903 174.331 169.638 174.331 169.362V156.871C174.331 156.595 174.235 156.331 174.064 156.136C173.894 155.94 173.663 155.831 173.422 155.83H162.518Z" fill="#3F3D56"/>
<path d="M367.879 170.403H160.701V172.485H367.879V170.403Z" fill="#3F3D56"/>
<path d="M906.724 280.739H240.664V282.821H906.724V280.739Z" fill="#3F3D56"/>
<path d="M240.664 295.311C247.69 295.311 253.386 288.787 253.386 280.739C253.386 272.69 247.69 266.166 240.664 266.166C233.638 266.166 227.943 272.69 227.943 280.739C227.943 288.787 233.638 295.311 240.664 295.311Z" fill="#3F3D56"/>
<path d="M906.725 294.27C912.245 294.27 916.72 289.144 916.72 282.821C916.72 276.497 912.245 271.371 906.725 271.371C901.205 271.371 896.729 276.497 896.729 282.821C896.729 289.144 901.205 294.27 906.725 294.27Z" fill="#3F3D56"/>
<path d="M955.793 524.31C961.314 524.31 965.789 519.184 965.789 512.86C965.789 506.536 961.314 501.41 955.793 501.41C950.273 501.41 945.798 506.536 945.798 512.86C945.798 519.184 950.273 524.31 955.793 524.31Z" fill="#3F3D56"/>
<path d="M292.459 524.31C297.979 524.31 302.454 519.184 302.454 512.86C302.454 506.536 297.979 501.41 292.459 501.41C286.939 501.41 282.464 506.536 282.464 512.86C282.464 519.184 286.939 524.31 292.459 524.31Z" fill="#3F3D56"/>
</g>
<defs>
<clipPath id="clip0_402_2">
<rect width="1000" height="720" fill="white"/>
</clipPath>
</defs>
</svg>
