<svg width="1000" height="720" viewBox="0 0 1000 720" fill="none" xmlns="http://www.w3.org/2000/svg">
<g clip-path="url(#clip0_403_242)">
<path d="M211.286 0.000203129C184.117 -0.0670888 157.197 7.45932 132.016 22.1628C131.002 22.7618 129.984 23.3637 128.967 23.9792C90.6974 47.2584 58.0458 86.3021 35.104 136.217C12.1622 186.132 -0.0493013 244.698 3.75899e-06 304.575V636.921C0.00274776 640.43 0.97119 643.795 2.69287 646.277C4.41455 648.759 6.74886 650.155 9.18368 650.159L9.36604 650.182C186.373 696.52 358.454 720 520.97 720C523.407 720 525.841 719.995 528.272 719.985C688.022 719.284 843.573 695.803 990.602 650.192L990.816 650.159C993.251 650.155 995.586 648.759 997.307 646.277C999.029 643.795 999.997 640.43 1000 636.921V13.2388C999.997 9.72896 999.029 6.36396 997.307 3.88211C995.586 1.40026 993.251 0.00424457 990.816 0.000292909L211.286 0.000203129Z" fill="#45B69C"/>
<path d="M761.02 265.054C759.428 265.092 757.91 266.03 756.794 267.666C755.677 269.302 755.052 271.505 755.052 273.8C755.052 276.095 755.677 278.298 756.794 279.935C757.91 281.571 759.428 282.509 761.02 282.546H913.148C913.945 282.567 914.738 282.36 915.48 281.939C916.222 281.517 916.899 280.889 917.472 280.09C918.045 279.291 918.504 278.337 918.821 277.282C919.139 276.228 919.309 275.093 919.322 273.944C919.335 272.795 919.191 271.653 918.897 270.584C918.604 269.515 918.168 268.54 917.613 267.714C917.058 266.888 916.396 266.228 915.664 265.772C914.932 265.315 914.145 265.072 913.347 265.054C913.281 265.052 913.215 265.052 913.148 265.054H761.02Z" fill="#3F3D56"/>
<path d="M947.647 262.618C947.536 262.778 947.448 262.968 947.388 263.177C947.328 263.386 947.297 263.609 947.297 263.835C947.297 264.061 947.328 264.285 947.388 264.494C947.448 264.703 947.536 264.893 947.647 265.052L952.773 272.441H940.134C939.817 272.441 939.514 272.622 939.29 272.945C939.066 273.268 938.94 273.705 938.94 274.162C938.94 274.618 939.066 275.056 939.29 275.379C939.514 275.702 939.817 275.883 940.134 275.883H952.773L947.647 283.271C947.536 283.431 947.448 283.621 947.388 283.83C947.328 284.038 947.297 284.262 947.297 284.488C947.297 284.714 947.328 284.938 947.388 285.147C947.448 285.356 947.536 285.545 947.647 285.705C947.758 285.865 947.89 285.992 948.034 286.078C948.179 286.165 948.335 286.209 948.491 286.209C948.648 286.209 948.803 286.165 948.948 286.078C949.093 285.992 949.225 285.865 949.336 285.705L956.499 275.379C956.723 275.056 956.849 274.618 956.849 274.162C956.849 273.705 956.723 273.268 956.499 272.945L949.336 262.618C949.225 262.459 949.093 262.332 948.948 262.245C948.803 262.159 948.648 262.114 948.491 262.114C948.335 262.114 948.179 262.159 948.034 262.245C947.89 262.332 947.758 262.459 947.647 262.618Z" fill="white"/>
<path d="M726.457 262.618C726.567 262.778 726.655 262.968 726.715 263.177C726.775 263.386 726.806 263.609 726.806 263.835C726.806 264.061 726.775 264.285 726.715 264.494C726.655 264.703 726.567 264.893 726.457 265.052L721.331 272.441H733.97C734.127 272.44 734.283 272.484 734.428 272.57C734.573 272.657 734.705 272.783 734.816 272.943C734.928 273.103 735.016 273.293 735.076 273.502C735.136 273.711 735.167 273.935 735.167 274.162C735.167 274.388 735.136 274.613 735.076 274.822C735.016 275.031 734.928 275.221 734.816 275.381C734.705 275.541 734.573 275.667 734.428 275.753C734.283 275.84 734.127 275.884 733.97 275.883H721.331L726.457 283.271C726.68 283.594 726.806 284.032 726.806 284.488C726.806 284.945 726.681 285.383 726.457 285.705C726.233 286.028 725.929 286.209 725.612 286.209C725.296 286.209 724.992 286.028 724.768 285.705L717.605 275.379C717.381 275.056 717.255 274.618 717.255 274.162C717.255 273.705 717.381 273.268 717.605 272.945L724.768 262.618C724.879 262.459 725.011 262.332 725.155 262.245C725.3 262.159 725.456 262.114 725.612 262.114C725.769 262.114 725.924 262.159 726.069 262.245C726.214 262.332 726.346 262.459 726.457 262.618V262.618Z" fill="white"/>
<g opacity="0.4">
<path d="M767.163 83.5201C770.764 83.5201 773.683 79.3119 773.683 74.1209C773.683 68.9298 770.764 64.7217 767.163 64.7217C763.562 64.7217 760.643 68.9298 760.643 74.1209C760.643 79.3119 763.562 83.5201 767.163 83.5201Z" fill="white"/>
<path d="M794.331 83.5201C797.932 83.5201 800.851 79.3119 800.851 74.1209C800.851 68.9298 797.932 64.7217 794.331 64.7217C790.73 64.7217 787.811 68.9298 787.811 74.1209C787.811 79.3119 790.73 83.5201 794.331 83.5201Z" fill="white"/>
<path d="M821.499 83.5201C825.1 83.5201 828.019 79.3119 828.019 74.1209C828.019 68.9298 825.1 64.7217 821.499 64.7217C817.898 64.7217 814.979 68.9298 814.979 74.1209C814.979 79.3119 817.898 83.5201 821.499 83.5201Z" fill="white"/>
<path d="M848.667 83.5201C852.268 83.5201 855.187 79.3119 855.187 74.1209C855.187 68.9298 852.268 64.7217 848.667 64.7217C845.066 64.7217 842.147 68.9298 842.147 74.1209C842.147 79.3119 845.066 83.5201 848.667 83.5201Z" fill="white"/>
<path d="M875.835 83.5201C879.436 83.5201 882.355 79.3119 882.355 74.1209C882.355 68.9298 879.436 64.7217 875.835 64.7217C872.234 64.7217 869.315 68.9298 869.315 74.1209C869.315 79.3119 872.234 83.5201 875.835 83.5201Z" fill="white"/>
<path d="M903.003 83.5201C906.604 83.5201 909.523 79.3119 909.523 74.1209C909.523 68.9298 906.604 64.7217 903.003 64.7217C899.402 64.7217 896.483 68.9298 896.483 74.1209C896.483 79.3119 899.402 83.5201 903.003 83.5201Z" fill="white"/>
<path d="M930.171 83.5201C933.772 83.5201 936.691 79.3119 936.691 74.1209C936.691 68.9298 933.772 64.7217 930.171 64.7217C926.57 64.7217 923.651 68.9298 923.651 74.1209C923.651 79.3119 926.57 83.5201 930.171 83.5201Z" fill="white"/>
<path d="M767.163 113.284C770.764 113.284 773.683 109.076 773.683 103.885C773.683 98.694 770.764 94.4858 767.163 94.4858C763.562 94.4858 760.643 98.694 760.643 103.885C760.643 109.076 763.562 113.284 767.163 113.284Z" fill="white"/>
<path d="M794.331 113.284C797.932 113.284 800.851 109.076 800.851 103.885C800.851 98.694 797.932 94.4858 794.331 94.4858C790.73 94.4858 787.811 98.694 787.811 103.885C787.811 109.076 790.73 113.284 794.331 113.284Z" fill="white"/>
<path d="M821.499 113.284C825.1 113.284 828.019 109.076 828.019 103.885C828.019 98.694 825.1 94.4858 821.499 94.4858C817.898 94.4858 814.979 98.694 814.979 103.885C814.979 109.076 817.898 113.284 821.499 113.284Z" fill="white"/>
<path d="M848.667 113.284C852.268 113.284 855.187 109.076 855.187 103.885C855.187 98.694 852.268 94.4858 848.667 94.4858C845.066 94.4858 842.147 98.694 842.147 103.885C842.147 109.076 845.066 113.284 848.667 113.284Z" fill="white"/>
<path d="M875.835 113.284C879.436 113.284 882.355 109.076 882.355 103.885C882.355 98.694 879.436 94.4858 875.835 94.4858C872.234 94.4858 869.315 98.694 869.315 103.885C869.315 109.076 872.234 113.284 875.835 113.284Z" fill="white"/>
<path d="M903.003 113.284C906.604 113.284 909.523 109.076 909.523 103.885C909.523 98.694 906.604 94.4858 903.003 94.4858C899.402 94.4858 896.483 98.694 896.483 103.885C896.483 109.076 899.402 113.284 903.003 113.284Z" fill="white"/>
<path d="M930.171 113.284C933.772 113.284 936.691 109.076 936.691 103.885C936.691 98.694 933.772 94.4858 930.171 94.4858C926.57 94.4858 923.651 98.694 923.651 103.885C923.651 109.076 926.57 113.284 930.171 113.284Z" fill="white"/>
<path d="M767.163 143.048C770.764 143.048 773.683 138.84 773.683 133.649C773.683 128.458 770.764 124.25 767.163 124.25C763.562 124.25 760.643 128.458 760.643 133.649C760.643 138.84 763.562 143.048 767.163 143.048Z" fill="white"/>
<path d="M794.331 143.048C797.932 143.048 800.851 138.84 800.851 133.649C800.851 128.458 797.932 124.25 794.331 124.25C790.73 124.25 787.811 128.458 787.811 133.649C787.811 138.84 790.73 143.048 794.331 143.048Z" fill="white"/>
<path d="M821.499 143.048C825.1 143.048 828.019 138.84 828.019 133.649C828.019 128.458 825.1 124.25 821.499 124.25C817.898 124.25 814.979 128.458 814.979 133.649C814.979 138.84 817.898 143.048 821.499 143.048Z" fill="white"/>
<path d="M848.667 143.048C852.268 143.048 855.187 138.84 855.187 133.649C855.187 128.458 852.268 124.25 848.667 124.25C845.066 124.25 842.147 128.458 842.147 133.649C842.147 138.84 845.066 143.048 848.667 143.048Z" fill="white"/>
<path d="M875.835 143.048C879.436 143.048 882.355 138.84 882.355 133.649C882.355 128.458 879.436 124.25 875.835 124.25C872.234 124.25 869.315 128.458 869.315 133.649C869.315 138.84 872.234 143.048 875.835 143.048Z" fill="white"/>
<path d="M903.003 143.048C906.604 143.048 909.523 138.84 909.523 133.649C909.523 128.458 906.604 124.25 903.003 124.25C899.402 124.25 896.483 128.458 896.483 133.649C896.483 138.84 899.402 143.048 903.003 143.048Z" fill="white"/>
<path d="M930.171 143.048C933.772 143.048 936.691 138.84 936.691 133.649C936.691 128.458 933.772 124.25 930.171 124.25C926.57 124.25 923.651 128.458 923.651 133.649C923.651 138.84 926.57 143.048 930.171 143.048Z" fill="white"/>
<path d="M767.163 172.813C770.764 172.813 773.683 168.604 773.683 163.413C773.683 158.222 770.764 154.014 767.163 154.014C763.562 154.014 760.643 158.222 760.643 163.413C760.643 168.604 763.562 172.813 767.163 172.813Z" fill="white"/>
<path d="M794.331 172.813C797.932 172.813 800.851 168.604 800.851 163.413C800.851 158.222 797.932 154.014 794.331 154.014C790.73 154.014 787.811 158.222 787.811 163.413C787.811 168.604 790.73 172.813 794.331 172.813Z" fill="white"/>
<path d="M767.163 202.577C770.764 202.577 773.683 198.369 773.683 193.178C773.683 187.986 770.764 183.778 767.163 183.778C763.562 183.778 760.643 187.986 760.643 193.178C760.643 198.369 763.562 202.577 767.163 202.577Z" fill="white"/>
<path d="M794.331 202.577C797.932 202.577 800.851 198.369 800.851 193.178C800.851 187.986 797.932 183.778 794.331 183.778C790.73 183.778 787.811 187.986 787.811 193.178C787.811 198.369 790.73 202.577 794.331 202.577Z" fill="white"/>
<path d="M821.499 202.577C825.1 202.577 828.019 198.369 828.019 193.178C828.019 187.986 825.1 183.778 821.499 183.778C817.898 183.778 814.979 187.986 814.979 193.178C814.979 198.369 817.898 202.577 821.499 202.577Z" fill="white"/>
<path d="M821.499 172.813C825.1 172.813 828.019 168.604 828.019 163.413C828.019 158.222 825.1 154.014 821.499 154.014C817.898 154.014 814.979 158.222 814.979 163.413C814.979 168.604 817.898 172.813 821.499 172.813Z" fill="white"/>
<path d="M848.667 172.813C852.268 172.813 855.187 168.604 855.187 163.413C855.187 158.222 852.268 154.014 848.667 154.014C845.066 154.014 842.147 158.222 842.147 163.413C842.147 168.604 845.066 172.813 848.667 172.813Z" fill="white"/>
<path d="M875.835 172.813C879.436 172.813 882.355 168.604 882.355 163.413C882.355 158.222 879.436 154.014 875.835 154.014C872.234 154.014 869.315 158.222 869.315 163.413C869.315 168.604 872.234 172.813 875.835 172.813Z" fill="white"/>
<path d="M903.003 172.813C906.604 172.813 909.523 168.604 909.523 163.413C909.523 158.222 906.604 154.014 903.003 154.014C899.402 154.014 896.483 158.222 896.483 163.413C896.483 168.604 899.402 172.813 903.003 172.813Z" fill="white"/>
<path d="M930.171 172.813C933.772 172.813 936.691 168.604 936.691 163.413C936.691 158.222 933.772 154.014 930.171 154.014C926.57 154.014 923.651 158.222 923.651 163.413C923.651 168.604 926.57 172.813 930.171 172.813Z" fill="white"/>
</g>
<path d="M673.63 552.281C666.511 552.281 659.552 549.238 653.634 543.537C647.715 537.836 643.101 529.732 640.377 520.252C637.653 510.771 636.94 500.339 638.329 490.275C639.718 480.21 643.146 470.965 648.179 463.709C653.213 456.453 659.626 451.512 666.608 449.51C673.59 447.508 680.827 448.535 687.403 452.462C693.98 456.389 699.601 463.039 703.556 471.571C707.511 480.104 709.622 490.135 709.622 500.397C709.611 514.152 705.816 527.34 699.068 537.067C692.321 546.794 683.172 552.265 673.63 552.281V552.281ZM673.63 451.455C666.915 451.455 660.351 454.325 654.767 459.703C649.184 465.081 644.832 472.724 642.263 481.667C639.693 490.61 639.021 500.451 640.331 509.945C641.641 519.439 644.874 528.159 649.622 535.004C654.371 541.849 660.42 546.51 667.006 548.398C673.592 550.287 680.419 549.317 686.622 545.613C692.826 541.909 698.129 535.636 701.859 527.587C705.59 519.539 707.581 510.076 707.581 500.397C707.571 487.421 703.991 474.981 697.626 465.806C691.261 456.63 682.631 451.469 673.63 451.455V451.455Z" fill="#3F3D56"/>
<path d="M687.429 495.424H677.08V480.505C677.08 479.186 676.717 477.921 676.07 476.988C675.423 476.056 674.545 475.532 673.63 475.532C672.715 475.532 671.838 476.056 671.191 476.988C670.544 477.921 670.18 479.186 670.18 480.505V495.424H659.831C658.916 495.424 658.039 495.947 657.392 496.88C656.745 497.813 656.381 499.078 656.381 500.396C656.381 501.715 656.745 502.98 657.392 503.913C658.039 504.845 658.916 505.369 659.831 505.369H670.18V520.288C670.18 521.607 670.544 522.872 671.191 523.805C671.838 524.737 672.715 525.261 673.63 525.261C674.545 525.261 675.423 524.737 676.07 523.805C676.717 522.872 677.08 521.607 677.08 520.288V505.369H687.429C688.344 505.369 689.222 504.845 689.869 503.913C690.515 502.98 690.879 501.715 690.879 500.396C690.879 499.078 690.515 497.813 689.869 496.88C689.222 495.947 688.344 495.424 687.429 495.424V495.424Z" fill="white"/>
<g opacity="0.4">
<path d="M55.1264 558.65C57.9577 558.65 60.2529 555.341 60.2529 551.26C60.2529 547.179 57.9577 543.87 55.1264 543.87C52.2952 543.87 50 547.179 50 551.26C50 555.341 52.2952 558.65 55.1264 558.65Z" fill="white"/>
<path d="M55.1264 527.859C57.9577 527.859 60.2529 524.55 60.2529 520.469C60.2529 516.388 57.9577 513.079 55.1264 513.079C52.2952 513.079 50 516.388 50 520.469C50 524.55 52.2952 527.859 55.1264 527.859Z" fill="white"/>
<path d="M55.1264 497.067C57.9577 497.067 60.2529 493.759 60.2529 489.677C60.2529 485.596 57.9577 482.288 55.1264 482.288C52.2952 482.288 50 485.596 50 489.677C50 493.759 52.2952 497.067 55.1264 497.067Z" fill="white"/>
<path d="M55.1264 466.276C57.9577 466.276 60.2529 462.968 60.2529 458.886C60.2529 454.805 57.9577 451.497 55.1264 451.497C52.2952 451.497 50 454.805 50 458.886C50 462.968 52.2952 466.276 55.1264 466.276Z" fill="white"/>
<path d="M55.1264 435.485C57.9577 435.485 60.2529 432.176 60.2529 428.095C60.2529 424.014 57.9577 420.705 55.1264 420.705C52.2952 420.705 50 424.014 50 428.095C50 432.176 52.2952 435.485 55.1264 435.485Z" fill="white"/>
<path d="M55.1264 404.694C57.9577 404.694 60.2529 401.385 60.2529 397.304C60.2529 393.223 57.9577 389.914 55.1264 389.914C52.2952 389.914 50 393.223 50 397.304C50 401.385 52.2952 404.694 55.1264 404.694Z" fill="white"/>
<path d="M55.1264 373.902C57.9577 373.902 60.2529 370.594 60.2529 366.512C60.2529 362.431 57.9577 359.123 55.1264 359.123C52.2952 359.123 50 362.431 50 366.512C50 370.594 52.2952 373.902 55.1264 373.902Z" fill="white"/>
<path d="M71.3602 558.65C74.1914 558.65 76.4866 555.341 76.4866 551.26C76.4866 547.179 74.1914 543.87 71.3602 543.87C68.5289 543.87 66.2337 547.179 66.2337 551.26C66.2337 555.341 68.5289 558.65 71.3602 558.65Z" fill="white"/>
<path d="M71.3602 527.859C74.1914 527.859 76.4866 524.55 76.4866 520.469C76.4866 516.388 74.1914 513.079 71.3602 513.079C68.5289 513.079 66.2337 516.388 66.2337 520.469C66.2337 524.55 68.5289 527.859 71.3602 527.859Z" fill="white"/>
<path d="M71.3602 497.067C74.1914 497.067 76.4866 493.759 76.4866 489.677C76.4866 485.596 74.1914 482.288 71.3602 482.288C68.5289 482.288 66.2337 485.596 66.2337 489.677C66.2337 493.759 68.5289 497.067 71.3602 497.067Z" fill="white"/>
<path d="M71.3602 466.276C74.1914 466.276 76.4866 462.968 76.4866 458.886C76.4866 454.805 74.1914 451.497 71.3602 451.497C68.5289 451.497 66.2337 454.805 66.2337 458.886C66.2337 462.968 68.5289 466.276 71.3602 466.276Z" fill="white"/>
<path d="M71.3602 435.485C74.1914 435.485 76.4866 432.176 76.4866 428.095C76.4866 424.014 74.1914 420.705 71.3602 420.705C68.5289 420.705 66.2337 424.014 66.2337 428.095C66.2337 432.176 68.5289 435.485 71.3602 435.485Z" fill="white"/>
<path d="M71.3602 404.694C74.1914 404.694 76.4866 401.385 76.4866 397.304C76.4866 393.223 74.1914 389.914 71.3602 389.914C68.5289 389.914 66.2337 393.223 66.2337 397.304C66.2337 401.385 68.5289 404.694 71.3602 404.694Z" fill="white"/>
<path d="M71.3602 373.902C74.1914 373.902 76.4866 370.594 76.4866 366.512C76.4866 362.431 74.1914 359.123 71.3602 359.123C68.5289 359.123 66.2337 362.431 66.2337 366.512C66.2337 370.594 68.5289 373.902 71.3602 373.902Z" fill="white"/>
<path d="M87.5939 558.65C90.4251 558.65 92.7203 555.341 92.7203 551.26C92.7203 547.179 90.4251 543.87 87.5939 543.87C84.7626 543.87 82.4674 547.179 82.4674 551.26C82.4674 555.341 84.7626 558.65 87.5939 558.65Z" fill="white"/>
<path d="M87.5939 527.859C90.4251 527.859 92.7203 524.55 92.7203 520.469C92.7203 516.388 90.4251 513.079 87.5939 513.079C84.7626 513.079 82.4674 516.388 82.4674 520.469C82.4674 524.55 84.7626 527.859 87.5939 527.859Z" fill="white"/>
<path d="M87.5939 497.067C90.4251 497.067 92.7203 493.759 92.7203 489.677C92.7203 485.596 90.4251 482.288 87.5939 482.288C84.7626 482.288 82.4674 485.596 82.4674 489.677C82.4674 493.759 84.7626 497.067 87.5939 497.067Z" fill="white"/>
<path d="M87.5939 466.276C90.4251 466.276 92.7203 462.968 92.7203 458.886C92.7203 454.805 90.4251 451.497 87.5939 451.497C84.7626 451.497 82.4674 454.805 82.4674 458.886C82.4674 462.968 84.7626 466.276 87.5939 466.276Z" fill="white"/>
<path d="M87.5939 435.485C90.4251 435.485 92.7203 432.176 92.7203 428.095C92.7203 424.014 90.4251 420.705 87.5939 420.705C84.7626 420.705 82.4674 424.014 82.4674 428.095C82.4674 432.176 84.7626 435.485 87.5939 435.485Z" fill="white"/>
<path d="M87.5939 404.694C90.4251 404.694 92.7203 401.385 92.7203 397.304C92.7203 393.223 90.4251 389.914 87.5939 389.914C84.7626 389.914 82.4674 393.223 82.4674 397.304C82.4674 401.385 84.7626 404.694 87.5939 404.694Z" fill="white"/>
<path d="M87.5939 373.902C90.4251 373.902 92.7203 370.594 92.7203 366.512C92.7203 362.431 90.4251 359.123 87.5939 359.123C84.7626 359.123 82.4674 362.431 82.4674 366.512C82.4674 370.594 84.7626 373.902 87.5939 373.902Z" fill="white"/>
<path d="M103.828 558.65C106.659 558.65 108.954 555.341 108.954 551.26C108.954 547.179 106.659 543.87 103.828 543.87C100.996 543.87 98.7012 547.179 98.7012 551.26C98.7012 555.341 100.996 558.65 103.828 558.65Z" fill="white"/>
<path d="M103.828 527.859C106.659 527.859 108.954 524.55 108.954 520.469C108.954 516.388 106.659 513.079 103.828 513.079C100.996 513.079 98.7012 516.388 98.7012 520.469C98.7012 524.55 100.996 527.859 103.828 527.859Z" fill="white"/>
<path d="M120.061 558.65C122.893 558.65 125.188 555.341 125.188 551.26C125.188 547.179 122.893 543.87 120.061 543.87C117.23 543.87 114.935 547.179 114.935 551.26C114.935 555.341 117.23 558.65 120.061 558.65Z" fill="white"/>
<path d="M120.061 527.859C122.893 527.859 125.188 524.55 125.188 520.469C125.188 516.388 122.893 513.079 120.061 513.079C117.23 513.079 114.935 516.388 114.935 520.469C114.935 524.55 117.23 527.859 120.061 527.859Z" fill="white"/>
<path d="M120.061 497.067C122.893 497.067 125.188 493.759 125.188 489.677C125.188 485.596 122.893 482.288 120.061 482.288C117.23 482.288 114.935 485.596 114.935 489.677C114.935 493.759 117.23 497.067 120.061 497.067Z" fill="white"/>
<path d="M103.828 497.067C106.659 497.067 108.954 493.759 108.954 489.677C108.954 485.596 106.659 482.288 103.828 482.288C100.996 482.288 98.7012 485.596 98.7012 489.677C98.7012 493.759 100.996 497.067 103.828 497.067Z" fill="white"/>
<path d="M103.828 466.276C106.659 466.276 108.954 462.968 108.954 458.886C108.954 454.805 106.659 451.497 103.828 451.497C100.996 451.497 98.7012 454.805 98.7012 458.886C98.7012 462.968 100.996 466.276 103.828 466.276Z" fill="white"/>
<path d="M103.828 435.485C106.659 435.485 108.954 432.176 108.954 428.095C108.954 424.014 106.659 420.705 103.828 420.705C100.996 420.705 98.7012 424.014 98.7012 428.095C98.7012 432.176 100.996 435.485 103.828 435.485Z" fill="white"/>
<path d="M103.828 404.694C106.659 404.694 108.954 401.385 108.954 397.304C108.954 393.223 106.659 389.914 103.828 389.914C100.996 389.914 98.7012 393.223 98.7012 397.304C98.7012 401.385 100.996 404.694 103.828 404.694Z" fill="white"/>
<path d="M103.828 373.902C106.659 373.902 108.954 370.594 108.954 366.512C108.954 362.431 106.659 359.123 103.828 359.123C100.996 359.123 98.7012 362.431 98.7012 366.512C98.7012 370.594 100.996 373.902 103.828 373.902Z" fill="white"/>
</g>
<path d="M507.56 48.5444H167.006C165.334 48.5469 163.73 49.5058 162.548 51.2107C161.365 52.9156 160.7 55.2273 160.698 57.6384V477.422C160.7 479.833 161.365 482.145 162.548 483.85C163.73 485.555 165.334 486.514 167.006 486.516H507.56C509.232 486.514 510.836 485.555 512.019 483.85C513.201 482.145 513.866 479.833 513.868 477.422V57.6383C513.866 55.2272 513.201 52.9156 512.019 51.2107C510.836 49.5058 509.232 48.5469 507.56 48.5444ZM511.34 477.422C511.339 478.869 510.941 480.256 510.233 481.281C509.524 482.305 508.563 482.883 507.56 482.889H167.006C166.002 482.886 165.04 482.309 164.331 481.284C163.622 480.259 163.225 478.87 163.226 477.422V57.6383C163.225 56.1908 163.622 54.8017 164.331 53.7765C165.04 52.7513 166.002 52.1741 167.006 52.1717H507.56C508.563 52.1769 509.524 52.7551 510.233 53.7796C510.941 54.8042 511.339 56.1917 511.34 57.6383V477.422Z" fill="#3F3D56"/>
<path d="M245.615 411.874C245.615 412.522 245.603 413.169 245.579 413.799C245.236 423.272 242.383 432.195 237.61 438.726C232.837 445.256 226.507 448.897 219.926 448.897C213.345 448.897 207.015 445.256 202.242 438.726C197.468 432.195 194.616 423.272 194.272 413.799C194.249 413.169 194.237 412.522 194.237 411.874C194.235 407.009 194.898 402.192 196.188 397.696C197.478 393.2 199.37 389.115 201.755 385.674C204.141 382.233 206.974 379.503 210.091 377.641C213.209 375.778 216.551 374.82 219.926 374.82C223.301 374.82 226.643 375.778 229.76 377.641C232.878 379.503 235.711 382.233 238.096 385.674C240.482 389.115 242.374 393.2 243.664 397.696C244.954 402.192 245.617 407.009 245.615 411.874Z" fill="white"/>
<path d="M481.097 387.182H279.248C278.114 387.184 277.026 387.836 276.224 388.993C275.423 390.151 274.972 391.719 274.972 393.355C274.972 394.991 275.423 396.559 276.224 397.717C277.026 398.874 278.114 399.526 279.248 399.528H481.097C482.232 399.526 483.319 398.874 484.121 397.717C484.923 396.559 485.373 394.991 485.373 393.355C485.373 391.719 484.923 390.151 484.121 388.993C483.319 387.836 482.232 387.184 481.097 387.182V387.182Z" fill="#3F3D56"/>
<path d="M366.102 424.221H279.248C278.114 424.221 277.026 424.871 276.224 426.027C275.422 427.183 274.972 428.751 274.972 430.386C274.972 432.021 275.422 433.589 276.224 434.745C277.026 435.901 278.114 436.551 279.248 436.551H366.102C367.237 436.551 368.324 435.901 369.126 434.745C369.928 433.589 370.379 432.021 370.379 430.386C370.379 428.751 369.928 427.183 369.126 426.027C368.324 424.871 367.237 424.221 366.102 424.221Z" fill="white"/>
<path d="M588.468 343.585H247.916C245.603 343.581 243.386 342.255 241.751 339.897C240.115 337.54 239.196 334.343 239.193 331.009V115.571C239.196 112.237 240.116 109.041 241.751 106.683C243.386 104.326 245.604 103 247.916 102.996H588.468C590.78 103 592.998 104.326 594.633 106.683C596.268 109.041 597.188 112.237 597.191 115.571V331.009C597.188 334.343 596.269 337.54 594.633 339.897C592.998 342.255 590.78 343.581 588.468 343.585V343.585ZM247.916 107.408C246.415 107.411 244.976 108.272 243.914 109.802C242.853 111.332 242.256 113.407 242.254 115.571V331.009C242.256 333.173 242.853 335.248 243.914 336.778C244.976 338.309 246.415 339.17 247.916 339.172H588.468C589.969 339.17 591.408 338.309 592.47 336.778C593.531 335.248 594.128 333.173 594.13 331.009V115.571C594.128 113.407 593.531 111.332 592.47 109.802C591.408 108.272 589.969 107.411 588.468 107.408H247.916Z" fill="white"/>
<path d="M317.27 181.573C316.134 181.573 315.045 182.223 314.242 183.38C313.439 184.538 312.988 186.108 312.988 187.745C312.988 189.382 313.439 190.951 314.242 192.109C315.045 193.266 316.134 193.917 317.27 193.917H519.114C520.249 193.917 521.338 193.266 522.141 192.109C522.944 190.951 523.395 189.382 523.395 187.745C523.395 186.108 522.944 184.538 522.141 183.38C521.338 182.223 520.249 181.573 519.114 181.573H317.27Z" fill="white"/>
<path d="M317.27 217.335C316.134 217.335 315.045 217.986 314.242 219.143C313.439 220.301 312.988 221.871 312.988 223.507C312.988 225.144 313.439 226.714 314.242 227.872C315.045 229.029 316.134 229.679 317.27 229.679H519.114C520.248 229.677 521.336 229.025 522.137 227.868C522.939 226.711 523.389 225.143 523.389 223.507C523.389 221.872 522.939 220.304 522.137 219.147C521.336 217.989 520.248 217.338 519.114 217.335H317.27Z" fill="white"/>
<path d="M317.27 252.664C316.134 252.664 315.045 253.314 314.242 254.472C313.439 255.629 312.988 257.199 312.988 258.836C312.988 260.473 313.439 262.043 314.242 263.2C315.045 264.358 316.134 265.008 317.27 265.008H404.124C405.258 265.006 406.346 264.354 407.147 263.197C407.949 262.04 408.399 260.471 408.399 258.836C408.399 257.201 407.949 255.632 407.147 254.475C406.346 253.318 405.258 252.667 404.124 252.664H317.27Z" fill="white"/>
<path d="M644.616 434.86L610.412 365.274L621.485 368.6C621.682 368.659 621.885 368.661 622.082 368.607C622.28 368.553 622.468 368.444 622.636 368.285C622.805 368.126 622.95 367.921 623.063 367.681C623.176 367.442 623.255 367.172 623.296 366.888C623.337 366.604 623.339 366.312 623.302 366.027C623.264 365.742 623.188 365.47 623.078 365.228C622.968 364.985 622.826 364.776 622.659 364.613C622.493 364.45 622.306 364.335 622.109 364.276L605.609 359.325L603.381 383.405C603.354 383.693 603.367 383.986 603.418 384.266C603.47 384.547 603.559 384.811 603.681 385.042C603.803 385.273 603.956 385.467 604.13 385.613C604.305 385.759 604.497 385.853 604.697 385.892C604.897 385.93 605.1 385.911 605.295 385.836C605.489 385.761 605.672 385.632 605.832 385.455C605.992 385.278 606.126 385.057 606.226 384.806C606.327 384.554 606.392 384.276 606.418 383.988L607.911 367.818L642.119 437.412C642.235 437.648 642.382 437.849 642.552 438.003C642.722 438.158 642.912 438.262 643.11 438.311C643.308 438.359 643.511 438.351 643.707 438.287C643.903 438.223 644.088 438.103 644.252 437.936C644.416 437.768 644.556 437.556 644.663 437.311C644.77 437.066 644.842 436.792 644.876 436.507C644.91 436.221 644.904 435.929 644.86 435.646C644.815 435.364 644.732 435.097 644.616 434.86V434.86Z" fill="white"/>
<path d="M458.843 637.392H215.723C214.53 637.39 213.385 636.705 212.541 635.489C211.697 634.272 211.223 632.622 211.221 630.902V543.967C211.223 542.246 211.697 540.596 212.541 539.38C213.385 538.163 214.53 537.479 215.723 537.477H458.843C460.036 537.479 461.181 538.163 462.025 539.38C462.869 540.596 463.344 542.246 463.345 543.967V630.902C463.344 632.622 462.869 634.272 462.025 635.489C461.181 636.705 460.036 637.39 458.843 637.392V637.392ZM215.723 540.073C215.007 540.074 214.32 540.484 213.814 541.214C213.308 541.944 213.023 542.934 213.022 543.967V630.902C213.023 631.934 213.308 632.924 213.814 633.654C214.32 634.384 215.007 634.795 215.723 634.796H458.843C459.559 634.795 460.246 634.384 460.752 633.654C461.258 632.924 461.543 631.934 461.544 630.902V543.967C461.543 542.934 461.258 541.944 460.752 541.214C460.246 540.484 459.559 540.074 458.843 540.073H215.723Z" fill="#3F3D56"/>
<path d="M253.499 610.535C263.628 610.535 271.839 598.699 271.839 584.098C271.839 569.497 263.628 557.661 253.499 557.661C243.37 557.661 235.159 569.497 235.159 584.098C235.159 598.699 243.37 610.535 253.499 610.535Z" fill="white"/>
<path d="M295.855 566.474C295.453 566.473 295.055 566.586 294.683 566.807C294.312 567.028 293.974 567.352 293.69 567.761C293.405 568.171 293.18 568.657 293.026 569.192C292.872 569.727 292.793 570.301 292.793 570.88C292.793 571.459 292.872 572.033 293.026 572.568C293.18 573.103 293.405 573.589 293.69 573.998C293.974 574.408 294.312 574.732 294.683 574.953C295.055 575.174 295.453 575.287 295.855 575.286H439.952C440.762 575.286 441.54 574.822 442.113 573.995C442.686 573.169 443.008 572.048 443.008 570.88C443.008 569.711 442.686 568.591 442.113 567.764C441.54 566.938 440.762 566.474 439.952 566.474H295.855Z" fill="white"/>
<path d="M295.855 592.911C295.453 592.91 295.055 593.023 294.683 593.244C294.312 593.465 293.974 593.789 293.69 594.198C293.405 594.608 293.18 595.094 293.026 595.629C292.872 596.164 292.793 596.737 292.793 597.317C292.793 597.896 292.872 598.47 293.026 599.005C293.18 599.54 293.405 600.026 293.69 600.435C293.974 600.845 294.312 601.169 294.683 601.39C295.055 601.611 295.453 601.724 295.855 601.723H357.86C358.671 601.723 359.448 601.259 360.022 600.432C360.595 599.606 360.917 598.485 360.917 597.317C360.917 596.148 360.595 595.027 360.022 594.201C359.448 593.375 358.671 592.911 357.86 592.911H295.855Z" fill="white"/>
<path d="M779.617 327.662H887.67C888.864 327.664 890.008 328.349 890.852 329.565C891.696 330.782 892.171 332.432 892.172 334.152V496.372C892.171 498.092 891.696 499.742 890.852 500.959C890.008 502.175 888.864 502.86 887.67 502.862H779.617C778.423 502.86 777.279 502.175 776.435 500.959C775.591 499.742 775.116 498.092 775.115 496.372V334.152C775.116 332.432 775.591 330.782 776.435 329.565C777.279 328.349 778.423 327.664 779.617 327.662V327.662ZM887.67 500.266C888.386 500.265 889.073 499.854 889.579 499.124C890.086 498.394 890.371 497.404 890.372 496.372V334.152C890.371 333.12 890.086 332.13 889.579 331.4C889.073 330.67 888.386 330.259 887.67 330.258H779.617C778.901 330.259 778.214 330.67 777.708 331.4C777.201 332.13 776.916 333.12 776.916 334.152V496.372C776.916 497.404 777.201 498.394 777.708 499.124C778.214 499.854 778.901 500.265 779.617 500.266H887.67Z" fill="#3F3D56"/>
<path d="M864.646 469.409C865.457 469.409 866.234 468.945 866.808 468.119C867.381 467.293 867.703 466.172 867.703 465.003C867.703 463.835 867.381 462.714 866.808 461.888C866.234 461.061 865.457 460.597 864.646 460.597H802.641C801.83 460.597 801.053 461.061 800.48 461.888C799.906 462.714 799.584 463.835 799.584 465.003C799.584 466.172 799.906 467.293 800.48 468.119C801.053 468.945 801.83 469.409 802.641 469.409H864.646Z" fill="white"/>
<path d="M864.646 443.449C865.048 443.45 865.446 443.337 865.818 443.116C866.189 442.895 866.527 442.571 866.811 442.161C867.096 441.752 867.321 441.266 867.475 440.731C867.629 440.196 867.708 439.622 867.708 439.043C867.708 438.464 867.629 437.89 867.475 437.355C867.321 436.82 867.096 436.334 866.811 435.924C866.527 435.515 866.189 435.191 865.818 434.97C865.446 434.749 865.048 434.636 864.646 434.637H802.641C802.239 434.636 801.841 434.749 801.469 434.97C801.098 435.191 800.76 435.515 800.476 435.924C800.191 436.334 799.966 436.82 799.812 437.355C799.658 437.89 799.579 438.464 799.579 439.043C799.579 439.622 799.658 440.196 799.812 440.731C799.966 441.266 800.191 441.752 800.476 442.161C800.76 442.571 801.098 442.895 801.469 443.116C801.841 443.337 802.239 443.45 802.641 443.449H864.646Z" fill="white"/>
<path d="M833.643 361.115C837.449 361.115 841.168 362.741 844.332 365.789C847.496 368.836 849.962 373.168 851.419 378.236C852.875 383.304 853.256 388.88 852.513 394.26C851.771 399.64 849.939 404.582 847.248 408.461C844.557 412.34 841.129 414.981 837.397 416.052C833.665 417.122 829.796 416.572 826.281 414.473C822.765 412.374 819.76 408.819 817.646 404.258C815.532 399.697 814.403 394.335 814.403 388.85C814.409 381.496 816.438 374.447 820.045 369.247C823.652 364.048 828.542 361.123 833.643 361.115Z" fill="white"/>
</g>
<defs>
<clipPath id="clip0_403_242">
<rect width="1000" height="720" fill="white"/>
</clipPath>
</defs>
</svg>
