<svg width="1000" height="720" viewBox="0 0 1000 720" fill="none" xmlns="http://www.w3.org/2000/svg">
<g clip-path="url(#clip0_325_100)">
<path d="M733.684 0.41626H0.312744V471.204H733.684V0.41626Z" fill="#E6E6E6"/>
<path d="M712.713 59.4644H21.2837V443.352H712.713V59.4644Z" fill="white"/>
<path d="M733.371 0H0V31.2293H733.371V0Z" fill="#45B69C"/>
<path d="M23.1537 21.7555C26.3432 21.7555 28.9288 19.1638 28.9288 15.9669C28.9288 12.7699 26.3432 10.1782 23.1537 10.1782C19.9642 10.1782 17.3787 12.7699 17.3787 15.9669C17.3787 19.1638 19.9642 21.7555 23.1537 21.7555Z" fill="white"/>
<path d="M45.0721 21.7555C48.2615 21.7555 50.8471 19.1638 50.8471 15.9669C50.8471 12.7699 48.2615 10.1782 45.0721 10.1782C41.8826 10.1782 39.297 12.7699 39.297 15.9669C39.297 19.1638 41.8826 21.7555 45.0721 21.7555Z" fill="white"/>
<path d="M66.9905 21.7555C70.18 21.7555 72.7656 19.1638 72.7656 15.9669C72.7656 12.7699 70.18 10.1782 66.9905 10.1782C63.801 10.1782 61.2155 12.7699 61.2155 15.9669C61.2155 19.1638 63.801 21.7555 66.9905 21.7555Z" fill="white"/>
<path d="M241.589 91.0403H106.356V238.102H241.589V91.0403Z" fill="#E6E6E6"/>
<path d="M434.614 91.0403H299.381V238.102H434.614V91.0403Z" fill="#E6E6E6"/>
<path d="M627.638 91.0403H492.404V238.102H627.638V91.0403Z" fill="#E6E6E6"/>
<path d="M241.589 264.72H106.356V411.782H241.589V264.72Z" fill="#E6E6E6"/>
<path d="M434.614 264.72H299.381V411.782H434.614V264.72Z" fill="#E6E6E6"/>
<path d="M627.638 264.72H492.404V411.782H627.638V264.72Z" fill="#E6E6E6"/>
<path d="M332.067 302.516L356.775 292.724L359.649 341.682C359.649 341.682 364.82 356.657 363.096 362.417C363.096 362.417 364.245 372.209 361.372 372.785C358.499 373.36 350.452 374.513 349.883 373.936C349.314 373.359 349.309 371.632 349.309 371.632C349.309 371.632 343.562 375.664 342.988 380.271C342.988 380.271 318.853 387.758 318.279 380.847C317.705 373.935 330.346 368.175 330.346 368.175L340.114 353.2L332.067 302.516Z" fill="white"/>
<path d="M384.359 302.516L409.065 292.724L411.938 341.682C411.938 341.682 417.109 356.657 415.386 362.417C415.386 362.417 416.535 372.209 413.661 372.785C410.788 373.36 402.741 374.513 402.173 373.936C401.604 373.359 401.598 371.632 401.598 371.632C401.598 371.632 395.852 375.664 395.277 380.271C395.277 380.271 371.143 387.758 370.568 380.847C369.994 373.935 382.635 368.175 382.635 368.175L392.404 353.2L384.359 302.516Z" fill="white"/>
<path d="M386.773 113.458C386.773 113.458 381.512 128.194 387.608 134.839L382.526 152.344C382.526 152.344 400.582 206.641 395.424 214.225C395.424 214.225 376.164 223.878 337.639 210.778L353.288 149.93L351.052 124.247L354.148 112.18L361.026 111.496C361.026 111.496 356.899 127.009 364.466 129.423C372.032 131.837 379.414 111.884 379.414 111.884L386.773 113.458Z" fill="#3F3D56"/>
<path d="M143.803 208.579L150.443 211.302L182.131 169.557L192.09 218.561L198.729 217.352C202.988 175.103 206.464 132.01 202.2 111.628L177.604 110.569L166.438 146.269L161.006 170.469L143.803 208.579Z" fill="white"/>
<path d="M546.769 111.294C546.769 111.294 537.707 123.921 538.15 129.016C538.592 134.112 544.338 217.182 544.338 217.182L557.819 217.847L553.838 158.036L557.153 141.865L565.33 217.182L581.906 217.626L567.099 119.935L564.226 111.296L546.769 111.294Z" fill="white"/>
<path d="M597.981 314.707C595.575 311.814 591.439 310.249 587.468 309.403C587.582 309.042 575.39 306.516 575.183 307.036L570.587 303.366L556.462 310.717L548.526 305.301L544.839 306.612C544.99 305.96 533.395 307.974 533.395 307.974C531.18 308.053 528.351 308.193 525.185 308.437C514.095 309.292 513.241 338.081 513.241 338.081C518.343 335.989 523.783 334.847 529.294 334.712L532.292 369.145C547.708 367.82 563.877 369.362 580.635 373.136L588.494 346.068L606.795 338.934C606.795 338.934 603.668 321.547 597.981 314.707Z" fill="#3F3D56"/>
<path d="M205.251 298.311C203.268 295.927 199.861 294.637 196.589 293.941C196.687 293.642 186.637 291.562 186.465 291.991L182.677 288.967L171.042 295.024L164.502 290.562L161.465 291.643C161.589 291.106 152.035 292.764 152.035 292.764C150.215 292.83 147.879 292.944 145.271 293.146C136.133 293.851 135.43 317.57 135.43 317.57C139.634 315.846 144.117 314.905 148.658 314.793L151.128 384.246C163.83 383.153 177.152 384.425 190.957 387.534L197.432 324.152L212.511 318.274C212.511 318.274 209.936 303.949 205.251 298.311Z" fill="white"/>
<path d="M852.495 316.797H917.333V282.022C917.333 273.404 913.917 265.139 907.837 259.045C901.758 252.951 893.512 249.527 884.914 249.527C876.316 249.527 868.07 252.951 861.991 259.045C855.911 265.139 852.495 273.404 852.495 282.022V316.797Z" fill="#2F2E41"/>
<path d="M823.552 703.708H809.607L802.972 649.787H823.554L823.552 703.708Z" fill="#FFB6B6"/>
<path d="M827.109 699.144H799.644C795.003 699.144 790.551 700.992 787.269 704.282C783.987 707.571 782.143 712.033 782.142 716.685V717.255H827.109V699.144Z" fill="#2F2E41"/>
<path d="M990.256 685.053L978.112 691.925L945.889 648.244L963.813 638.102L990.256 685.053Z" fill="#FFB6B6"/>
<path d="M991.115 679.326L967.199 692.855C963.157 695.143 960.187 698.946 958.943 703.429C957.698 707.911 958.281 712.705 960.563 716.757L960.843 717.253L1000 695.096L991.115 679.326Z" fill="#2F2E41"/>
<path d="M901.129 461.226L902.205 466.619C902.205 466.619 905.433 469.855 903.819 471.473C902.205 473.091 902.743 480.642 902.743 480.642C903.646 494.411 921.595 571.783 924.805 586.894C924.805 586.894 949.557 603.074 968.927 634.895C988.297 666.716 988.833 674.807 988.833 674.807L967.314 683.977L913.511 618.716C913.511 618.716 898.445 609.547 893.063 601.457C887.682 593.368 854.315 509.767 854.315 509.767L835.478 597.142C835.478 597.142 836.555 628.963 831.712 649.458C828.735 662.392 826.934 675.57 826.332 688.831L801.042 686.134C801.042 686.134 802.656 609.547 805.346 601.456C805.346 601.456 794.046 508.149 816.646 470.934L834.86 422.263L852.698 415.381L901.129 461.226Z" fill="#2F2E41"/>
<path d="M885.248 258.028C851.298 258.61 851.303 309.23 885.248 309.806C919.197 309.224 919.192 258.604 885.248 258.028Z" fill="#FFB8B8"/>
<path d="M859.119 282.574H864.89L866.46 278.636L865.674 282.574H897.234L896.21 274.334L903.882 282.574H911.534V278.109C911.536 274.66 910.861 271.243 909.546 268.056C908.231 264.868 906.303 261.971 903.871 259.53C901.44 257.089 898.552 255.152 895.374 253.83C892.195 252.508 888.788 251.826 885.347 251.823C881.905 251.821 878.497 252.498 875.317 253.816C872.136 255.133 869.246 257.066 866.811 259.504C864.376 261.941 862.443 264.835 861.124 268.021C859.805 271.207 859.125 274.622 859.122 278.072V278.109L859.119 282.574Z" fill="#2F2E41"/>
<path d="M850.239 324.922L914.393 325.443L900.839 463.309C900.839 463.309 825.811 459.34 825.764 436.385L832.793 415.987L850.239 324.922Z" fill="#3F3D56"/>
<path d="M917.151 476.637C916.165 475.426 915.455 474.013 915.073 472.498C914.69 470.983 914.644 469.402 914.936 467.867C915.229 466.332 915.854 464.88 916.767 463.613C917.681 462.346 918.86 461.296 920.222 460.535L917.434 436.264L931.736 430.968L935.192 465.3C936.308 467.678 936.517 470.383 935.778 472.904C935.04 475.425 933.406 477.588 931.185 478.984C928.963 480.379 926.309 480.911 923.723 480.479C921.138 480.046 918.799 478.68 917.151 476.637Z" fill="#FFB6B6"/>
<path d="M905.958 337.321L914.399 325.494C914.399 325.494 920.176 324.209 927.001 332.19C933.826 340.171 937.807 439.936 937.807 439.936L912.783 445.637L897.995 374.946L905.958 337.321Z" fill="#3F3D56"/>
<path d="M764.55 445.509L766.411 534.143L823.655 564.465L927.905 545.805L930.465 453.673L864.378 430.347L764.55 445.509Z" fill="white"/>
<path d="M823.506 565.422L765.508 534.701L763.619 444.723L864.466 429.407L864.681 429.483L931.397 453.03L928.798 546.576L823.506 565.422ZM767.314 533.584L823.804 563.507L927.012 545.034L929.532 454.315L864.289 431.287L765.48 446.294L767.314 533.584Z" fill="#CACACA"/>
<path d="M822.378 469.54L822.154 469.451L764.212 446.359L764.887 444.657L822.605 467.659L930.34 452.765L930.59 454.58L822.378 469.54Z" fill="#CACACA"/>
<path d="M823.406 468.589L821.578 468.611L822.741 564.476L824.569 564.453L823.406 468.589Z" fill="#CACACA"/>
<path d="M815.056 464.952L794.169 456.465L894.718 440.406L915.605 448.892L815.056 464.952Z" fill="#CACACA"/>
<path d="M764.911 471.22L764.188 472.903L788.412 483.358L789.135 481.675L764.911 471.22Z" fill="#CACACA"/>
<path d="M775.88 501.457L775.157 503.141L799.382 513.595L800.105 511.912L775.88 501.457Z" fill="#45B69C"/>
<path d="M446.052 568.647L447.912 657.281L505.157 687.604L609.406 668.944L611.966 576.811L545.879 553.485L446.052 568.647Z" fill="white"/>
<path d="M505.008 688.561L447.01 657.839L445.12 567.862L545.968 552.546L546.183 552.622L612.899 576.168L610.3 669.714L505.008 688.561ZM448.815 656.723L505.306 686.646L608.513 668.173L611.034 577.453L545.791 554.426L446.982 569.432L448.815 656.723Z" fill="#CACACA"/>
<path d="M503.879 592.679L503.655 592.59L445.714 569.498L446.388 567.796L504.107 590.798L611.841 575.904L612.092 577.719L503.879 592.679Z" fill="#CACACA"/>
<path d="M504.907 591.727L503.079 591.75L504.243 687.614L506.071 687.592L504.907 591.727Z" fill="#CACACA"/>
<path d="M491.498 586.004L475.671 579.603L576.219 563.544L592.045 569.945L491.498 586.004Z" fill="#CACACA"/>
<path d="M446.412 594.359L445.689 596.042L469.914 606.496L470.637 604.813L446.412 594.359Z" fill="#CACACA"/>
<path d="M457.382 624.596L456.659 626.279L480.884 636.734L481.607 635.051L457.382 624.596Z" fill="#45B69C"/>
<path d="M545.5 580.799L547.662 683.69L614.113 718.889L735.13 697.228L738.101 590.276L661.385 563.2L545.5 580.799Z" fill="#45B69C"/>
<path d="M613.939 720L546.613 684.337L544.419 579.888L661.488 562.108L661.737 562.196L739.183 589.53L736.166 698.122L613.939 720ZM548.709 683.041L614.285 717.777L734.093 696.332L737.018 591.022L661.282 564.291L546.581 581.711L548.709 683.041Z" fill="#3F3D56"/>
<path d="M612.63 608.697L612.37 608.593L545.108 581.788L545.892 579.811L612.894 606.513L737.955 589.223L738.245 591.33L612.63 608.697Z" fill="#3F3D56"/>
<path d="M613.823 607.592L611.701 607.618L613.051 718.901L615.174 718.875L613.823 607.592Z" fill="#3F3D56"/>
<path d="M599.332 600.997L579.883 593.519L696.604 574.876L716.054 582.354L599.332 600.997Z" fill="#3F3D56"/>
<path d="M545.92 610.647L545.08 612.601L573.201 624.737L574.04 622.783L545.92 610.647Z" fill="#3F3D56"/>
<path d="M558.654 645.747L557.814 647.701L585.935 659.837L586.774 657.883L558.654 645.747Z" fill="white"/>
<path d="M797.006 460.165C798.417 459.501 799.666 458.534 800.665 457.334C801.664 456.134 802.387 454.729 802.786 453.218C803.184 451.707 803.247 450.127 802.97 448.589C802.694 447.051 802.084 445.593 801.184 444.316L814.177 423.645L803.571 412.667L785.631 442.117C783.593 443.775 782.232 446.125 781.807 448.721C781.382 451.317 781.921 453.98 783.323 456.204C784.725 458.429 786.892 460.061 789.414 460.791C791.935 461.521 794.637 461.299 797.006 460.166V460.165Z" fill="#FFB6B6"/>
<path d="M860.097 330.356L850.789 324.208C850.789 324.208 843.606 325.823 835.966 340.552C828.327 355.28 797.519 421.13 797.519 421.13L810.183 434.014L843.966 382.354L860.097 330.356Z" fill="#3F3D56"/>
</g>
<defs>
<clipPath id="clip0_325_100">
<rect width="1000" height="720" fill="white"/>
</clipPath>
</defs>
</svg>
