<svg width="48" height="48" viewBox="0 0 48 48" fill="none" xmlns="http://www.w3.org/2000/svg">
<circle cx="24" cy="24" r="20" transform="rotate(-180 24 24)" fill="white"/>
<path d="M30.45 24L21.8 15.35L19.7 17.5L26.2 24L19.7 30.5L21.8 32.65L30.45 24ZM44 24C44 26.8333 43.4917 29.4667 42.475 31.9C41.4583 34.3333 40.05 36.45 38.25 38.25C36.45 40.05 34.3333 41.4583 31.9 42.475C29.4667 43.4917 26.8333 44 24 44C21.2 44 18.5833 43.4917 16.15 42.475C13.7167 41.4583 11.6 40.05 9.8 38.25C8 36.45 6.58333 34.3333 5.55 31.9C4.51667 29.4667 4 26.8333 4 24C4 21.2 4.51667 18.5833 5.55 16.15C6.58333 13.7167 8 11.6 9.8 9.8C11.6 8 13.7167 6.58333 16.15 5.55C18.5833 4.51667 21.2 4 24 4C26.8333 4 29.4667 4.51667 31.9 5.55C34.3333 6.58333 36.45 8 38.25 9.8C40.05 11.6 41.4583 13.7167 42.475 16.15C43.4917 18.5833 44 21.2 44 24ZM41 24C41 19.1667 39.375 15.125 36.125 11.875C32.875 8.625 28.8333 7 24 7C19.1667 7 15.125 8.625 11.875 11.875C8.625 15.125 7 19.1667 7 24C7 28.8333 8.625 32.875 11.875 36.125C15.125 39.375 19.1667 41 24 41C28.8333 41 32.875 39.375 36.125 36.125C39.375 32.875 41 28.8333 41 24Z" fill="#45B69C"/>
</svg>
