<svg width="50" height="44" viewBox="0 0 50 44" fill="none" xmlns="http://www.w3.org/2000/svg">
<path d="M46.4286 0.241364H3.56027C1.59598 0.241364 0 1.63645 0 3.34905V40.2371C0 41.9497 1.59598 43.3448 3.56027 43.3448H46.4286C48.3929 43.3448 50 41.9497 50 40.2371V3.34905C50 1.63645 48.3929 0.241364 46.4286 0.241364ZM15.1116 37.1872H7.70089V16.6168H15.1228V37.1872H15.1116ZM11.4062 13.8074C9.02902 13.8074 7.10938 12.1429 7.10938 10.1032C7.10938 8.06348 9.02902 6.399 11.4062 6.399C13.7723 6.399 15.7031 8.06348 15.7031 10.1032C15.7031 12.1525 13.7835 13.8074 11.4062 13.8074ZM42.8906 37.1872H35.4799V27.181C35.4799 24.7949 35.4241 21.7257 31.6295 21.7257C27.7679 21.7257 27.1763 24.3235 27.1763 27.0078V37.1872H19.7656V16.6168H26.875V19.4262H26.9754C27.9688 17.8099 30.3906 16.1069 33.9955 16.1069C41.4955 16.1069 42.8906 20.3691 42.8906 25.911V37.1872Z" fill="#45B69C"/>
</svg>
