<svg width="1000" height="720" viewBox="0 0 1000 720" fill="none" xmlns="http://www.w3.org/2000/svg">
<g clip-path="url(#clip0_325_154)">
<path d="M601.983 720H0V4.41724L601.983 196.564V720Z" fill="#F2F2F2"/>
<path d="M529.024 467.117H56.0374V693.497H529.024V467.117Z" fill="#3F3D56"/>
<path d="M426.59 424.766C462.915 424.766 492.363 394.515 492.363 357.198C492.363 319.882 462.915 289.631 426.59 289.631C390.264 289.631 360.817 319.882 360.817 357.198C360.817 394.515 390.264 424.766 426.59 424.766Z" fill="#45B69C"/>
<path d="M425.994 479.389L426.533 356.826" stroke="#3F3D56" stroke-width="2" stroke-miterlimit="10"/>
<path d="M426.533 374.159C435.851 374.159 443.405 366.399 443.405 356.826C443.405 347.254 435.851 339.494 426.533 339.494C417.215 339.494 409.661 347.254 409.661 356.826C409.661 366.399 417.215 374.159 426.533 374.159Z" fill="#3F3D56"/>
<path d="M426.201 432.364C426.201 432.364 424.025 379.099 374.587 385.06Z" fill="#3F3D56"/>
<path d="M151.058 289.111C187.384 289.111 216.831 258.86 216.831 221.544C216.831 184.228 187.384 153.977 151.058 153.977C114.733 153.977 85.2856 184.228 85.2856 221.544C85.2856 258.86 114.733 289.111 151.058 289.111Z" fill="#45B69C"/>
<path d="M147.334 470.984L151.12 221.469" stroke="#3F3D56" stroke-width="2" stroke-miterlimit="10"/>
<path d="M151.12 238.802C160.438 238.802 167.992 231.042 167.992 221.47C167.992 211.897 160.438 204.137 151.12 204.137C141.801 204.137 134.248 211.897 134.248 221.47C134.248 231.042 141.801 238.802 151.12 238.802Z" fill="#3F3D56"/>
<path d="M150.049 292.048C150.049 292.048 148.447 238.761 98.948 244.16Z" fill="#3F3D56"/>
<path d="M147.407 466.221C147.407 466.221 159.805 363.998 97.2202 358.043" stroke="#3F3D56" stroke-width="2" stroke-miterlimit="10"/>
<path d="M97.2202 375.376C106.538 375.376 114.092 367.616 114.092 358.043C114.092 348.471 106.538 340.711 97.2202 340.711C87.902 340.711 80.3481 348.471 80.3481 358.043C80.3481 367.616 87.902 375.376 97.2202 375.376Z" fill="#3F3D56"/>
<path d="M292.503 139.109C328.828 139.109 358.275 108.858 358.275 71.5419C358.275 34.2257 328.828 3.97485 292.503 3.97485C256.177 3.97485 226.73 34.2257 226.73 71.5419C226.73 108.858 256.177 139.109 292.503 139.109Z" fill="#45B69C"/>
<path d="M292.544 480.606V71.7903" stroke="#3F3D56" stroke-width="2" stroke-miterlimit="10"/>
<path d="M292.544 88.9287C301.862 88.9287 309.416 81.1688 309.416 71.5964C309.416 62.0241 301.862 54.2642 292.544 54.2642C283.225 54.2642 275.672 62.0241 275.672 71.5964C275.672 81.1688 283.225 88.9287 292.544 88.9287Z" fill="#3F3D56"/>
<path d="M240.723 384.71C250.041 384.71 257.595 376.95 257.595 367.377C257.595 357.805 250.041 350.045 240.723 350.045C231.404 350.045 223.851 357.805 223.851 367.377C223.851 376.95 231.404 384.71 240.723 384.71Z" fill="#3F3D56"/>
<path d="M292.544 160.131C292.544 160.131 290.133 106.876 240.722 113.066Z" fill="#3F3D56"/>
<path d="M292.544 311.101C292.544 311.101 290.133 257.846 240.722 264.037Z" fill="#3F3D56"/>
<path d="M292.544 475.842C292.544 475.842 303.39 372.329 240.722 367.377" stroke="#3F3D56" stroke-width="2" stroke-miterlimit="10"/>
<path d="M345.4 222.126C354.718 222.126 362.272 214.366 362.272 204.794C362.272 195.222 354.718 187.462 345.4 187.462C336.082 187.462 328.528 195.222 328.528 204.794C328.528 214.366 336.082 222.126 345.4 222.126Z" fill="#3F3D56"/>
<path d="M293.579 307.737C293.579 307.737 282.732 209.746 345.4 204.794" stroke="#3F3D56" stroke-width="2" stroke-miterlimit="10"/>
<path d="M433.213 165.644C428.535 165.644 423.963 164.219 420.074 161.55C416.185 158.88 413.154 155.086 411.364 150.647C409.574 146.208 409.105 141.323 410.018 136.61C410.93 131.897 413.183 127.569 416.49 124.171C419.798 120.773 424.012 118.459 428.599 117.522C433.187 116.585 437.942 117.066 442.263 118.904C446.584 120.743 450.278 123.857 452.876 127.852C455.475 131.848 456.862 136.545 456.862 141.35C456.855 147.791 454.361 153.966 449.928 158.52C445.494 163.075 439.483 165.637 433.213 165.644V165.644ZM433.213 119.264C428.961 119.264 424.804 120.559 421.268 122.986C417.733 125.413 414.977 128.862 413.35 132.898C411.723 136.933 411.297 141.374 412.127 145.658C412.956 149.943 415.004 153.878 418.01 156.967C421.017 160.056 424.848 162.159 429.019 163.011C433.189 163.863 437.512 163.426 441.44 161.754C445.369 160.083 448.727 157.252 451.089 153.62C453.451 149.988 454.712 145.718 454.712 141.35C454.706 135.494 452.438 129.88 448.408 125.74C444.377 121.6 438.913 119.27 433.213 119.264Z" fill="#3F3D56"/>
<path d="M61.2734 48.589C56.596 48.589 52.0236 47.1641 48.1345 44.4946C44.2454 41.8251 41.2142 38.0308 39.4242 33.5916C37.6343 29.1524 37.1659 24.2675 38.0785 19.5549C38.991 14.8422 41.2434 10.5133 44.5508 7.1157C47.8582 3.71805 52.0721 1.40423 56.6596 0.466821C61.2471 -0.470586 66.0022 0.0105295 70.3236 1.84932C74.6449 3.68811 78.3385 6.80199 80.9371 10.7972C83.5357 14.7924 84.9227 19.4895 84.9227 24.2945C84.9156 30.7356 82.4217 36.9107 77.9882 41.4652C73.5546 46.0198 67.5434 48.5817 61.2734 48.589V48.589ZM61.2734 2.2086C57.0212 2.2086 52.8645 3.50391 49.329 5.93074C45.7934 8.35757 43.0378 11.8069 41.4105 15.8426C39.7833 19.8783 39.3575 24.319 40.1871 28.6032C41.0166 32.8875 43.0643 36.8228 46.071 39.9116C49.0778 43.0003 52.9086 45.1038 57.0791 45.956C61.2495 46.8082 65.5723 46.3708 69.5008 44.6992C73.4293 43.0276 76.7871 40.1968 79.1495 36.5648C81.5118 32.9327 82.7728 28.6627 82.7728 24.2945C82.7663 18.439 80.4991 12.8253 76.4686 8.68481C72.438 4.54435 66.9734 2.2153 61.2734 2.2086V2.2086Z" fill="#3F3D56"/>
<path d="M601.983 408.589C597.306 408.589 592.733 407.164 588.844 404.495C584.955 401.825 581.924 398.031 580.134 393.592C578.344 389.152 577.876 384.268 578.788 379.555C579.701 374.842 581.953 370.513 585.26 367.116C588.568 363.718 592.782 361.404 597.369 360.467C601.957 359.529 606.712 360.011 611.033 361.849C615.355 363.688 619.048 366.802 621.647 370.797C624.245 374.792 625.632 379.489 625.632 384.294C625.625 390.736 623.131 396.911 618.698 401.465C614.264 406.02 608.253 408.582 601.983 408.589ZM601.983 362.209C597.731 362.209 593.574 363.504 590.039 365.931C586.503 368.358 583.747 371.807 582.12 375.843C580.493 379.878 580.067 384.319 580.897 388.603C581.726 392.887 583.774 396.823 586.781 399.912C589.787 403 593.618 405.104 597.789 405.956C601.959 406.808 606.282 406.371 610.211 404.699C614.139 403.028 617.497 400.197 619.859 396.565C622.222 392.933 623.482 388.663 623.482 384.294C623.476 378.439 621.209 372.825 617.178 368.685C613.148 364.544 607.683 362.215 601.983 362.209V362.209Z" fill="#3F3D56"/>
<path d="M502.011 218.65C509.729 218.65 515.986 212.223 515.986 204.295C515.986 196.366 509.729 189.939 502.011 189.939C494.293 189.939 488.036 196.366 488.036 204.295C488.036 212.223 494.293 218.65 502.011 218.65Z" fill="#3F3D56"/>
<path d="M611.658 480.368C619.376 480.368 625.632 473.941 625.632 466.012C625.632 458.084 619.376 451.656 611.658 451.656C603.94 451.656 597.683 458.084 597.683 466.012C597.683 473.941 603.94 480.368 611.658 480.368Z" fill="#3F3D56"/>
<path d="M601.983 720V467.117H502.011C502.011 585.434 408.642 681.35 293.467 681.35C178.291 681.35 84.9226 585.434 84.9226 467.117H0V720H601.983Z" fill="#3F3D56"/>
<path d="M293.467 681.35C408.642 681.35 502.011 585.434 502.011 467.117H84.9226C84.9226 585.434 178.291 681.35 293.467 681.35Z" fill="#45B69C"/>
<path d="M885.542 557.179C988.317 503.774 1029.49 374.891 977.502 269.312L605.32 462.71C657.307 568.289 782.767 610.584 885.542 557.179Z" fill="#3F3D56"/>
<path d="M893.081 158.47C893.773 157.987 894.442 157.47 895.093 156.931C893.737 161.103 891.551 164.938 888.675 168.195V168.195C888.002 168.957 887.283 169.669 886.545 170.359C886.531 170.184 886.514 170.009 886.505 169.835C886.419 168.146 886.539 166.368 886.562 164.628C889.125 163.059 891.344 160.962 893.081 158.47V158.47Z" fill="url(#paint0_linear_325_154)"/>
<path d="M903.166 96.8587C904.73 94.15 905.632 91.0922 905.795 87.947C905.958 84.8019 905.376 81.6631 904.099 78.7995C902.823 75.9359 900.89 73.4327 898.466 71.5043C896.042 69.5759 893.199 68.2798 890.18 67.7268C887.162 67.1738 884.058 67.3805 881.135 68.3292C878.211 69.2779 875.555 70.9404 873.394 73.1741C871.232 75.4079 869.63 78.1465 868.724 81.1555C867.818 84.1645 867.636 87.3541 868.192 90.4514C862.768 93.1052 858.228 97.3476 855.145 102.645C852.062 107.942 850.572 114.058 850.864 120.223C848.273 124.31 846.646 128.961 846.113 133.807C845.58 138.654 846.155 143.561 847.794 148.138C849.433 152.716 852.089 156.837 855.551 160.174C859.013 163.511 863.186 165.972 867.737 167.36C872.289 168.749 877.092 169.026 881.766 168.171C886.441 167.316 890.856 165.352 894.661 162.435C898.466 159.518 901.555 155.729 903.683 151.37C905.812 147.01 906.92 142.2 906.919 137.323C906.919 136.823 906.905 136.327 906.883 135.833C910.665 129.87 912.359 122.76 911.683 115.676C911.007 108.592 908.004 101.955 903.166 96.8587Z" fill="#2F2E41"/>
<g opacity="0.1">
<path d="M867.941 85.5039C868.026 85.4612 868.107 85.4121 868.193 85.3702C868.132 85.0327 868.09 84.6897 868.047 84.3472C868.037 84.4187 868.025 84.4889 868.016 84.5608C867.979 84.8767 867.963 85.1899 867.941 85.5039Z" fill="black"/>
<path d="M911.609 117.403C911.054 122.167 909.437 126.735 906.883 130.752C906.905 131.246 906.919 131.742 906.919 132.242C906.921 140.333 903.875 148.111 898.419 153.946C892.964 159.782 885.522 163.224 877.652 163.55C869.783 163.876 862.095 161.062 856.2 155.697C850.304 150.332 846.658 142.832 846.024 134.767C845.957 135.611 845.917 136.462 845.917 137.323C845.917 145.633 849.13 153.603 854.85 159.479C860.57 165.355 868.328 168.656 876.418 168.656C884.507 168.656 892.266 165.355 897.986 159.479C903.706 153.603 906.919 145.633 906.919 137.323C906.919 136.823 906.905 136.327 906.883 135.833C910.581 130.011 912.283 123.088 911.72 116.16C911.687 116.574 911.658 116.987 911.609 117.403Z" fill="black"/>
<path d="M905.669 84.3259C905.339 86.9594 904.488 89.4956 903.166 91.7775C903.7 92.3402 904.204 92.9298 904.694 93.5312C905.734 90.5877 906.068 87.4302 905.669 84.3259H905.669Z" fill="black"/>
</g>
<path d="M780.253 433.032C780.398 434.815 780.868 436.554 781.639 438.158C782.031 438.957 782.602 439.649 783.305 440.178C784.008 440.706 784.823 441.056 785.683 441.2C787.264 441.21 788.813 440.748 790.144 439.871C792.859 438.414 795.678 436.721 797.095 433.931C798.468 431.229 798.27 428.006 798.038 424.968L796.215 401.075C791.822 400.951 787.408 400.953 783.019 401.199C778.672 401.442 777.908 402.494 778.514 406.854C779.718 415.532 779.131 424.347 780.253 433.032Z" fill="#FBBEBE"/>
<path d="M909.133 449.18L919.586 466.529C920.035 467.538 920.852 468.326 921.86 468.725C922.61 468.836 923.375 468.7 924.044 468.335C927.53 466.77 930.198 463.798 932.758 460.907C934.495 458.946 936.291 456.877 936.943 454.311C937.28 452.92 937.266 451.463 936.9 450.079C936.534 448.695 935.83 447.43 934.854 446.405C933.634 445.313 932.314 444.345 930.914 443.512C922.651 437.786 918.922 426.91 910.765 421.026C910.294 420.624 909.72 420.371 909.112 420.296C908.506 420.332 907.92 420.534 907.415 420.881C903.698 422.974 899.981 425.067 896.264 427.16C891.435 429.873 892.966 430.192 896.633 433.115C902.035 437.421 905.408 443.44 909.133 449.18Z" fill="#FBBEBE"/>
<path d="M802.942 419.214C801.41 418.718 799.695 418.272 798.251 418.993C797.576 419.417 797.005 419.995 796.581 420.681C796.158 421.367 795.893 422.145 795.807 422.953C795.516 424.547 795.551 426.202 795.121 427.762C794.394 430.393 792.442 432.449 790.561 434.385C789.801 435.317 788.813 436.023 787.699 436.432C786.191 436.828 784.588 436.103 783.056 436.379C782.163 436.614 781.349 437.096 780.704 437.772C780.058 438.448 779.605 439.292 779.393 440.214C778.994 442.061 778.934 443.969 779.214 445.84L780.4 459.157C780.61 460.78 780.626 462.423 780.449 464.05C780.011 466.977 778.355 469.546 777.436 472.354C776.517 475.161 776.569 478.745 778.868 480.531C779.671 481.081 780.596 481.415 781.558 481.502C782.519 481.589 783.486 481.426 784.371 481.029C786.132 480.213 787.69 478.997 788.928 477.474C795.969 469.587 799.112 458.905 804.588 449.802C805.985 447.696 807.236 445.491 808.329 443.204C809.081 441.436 809.558 439.56 810.167 437.734C811.007 435.295 812.014 432.92 813.182 430.628C813.833 429.317 816.327 426.159 815.803 424.695C814.909 422.196 805.313 419.982 802.942 419.214Z" fill="#2F2E41"/>
<path d="M929.886 455.945C928.302 458.997 925.658 461.325 922.48 462.465C921.557 462.721 920.699 463.178 919.963 463.803C919.479 464.41 919.18 465.149 919.101 465.929C919.023 466.708 919.169 467.495 919.522 468.19C920.25 469.566 921.197 470.807 922.323 471.862C928.643 478.733 932.822 487.385 934.326 496.711C934.7 499.064 934.945 501.565 936.316 503.489C938.993 507.248 944.693 507.002 948.719 504.86C949.949 504.281 951.016 503.392 951.821 502.276C952.492 501.065 952.919 499.729 953.076 498.345C953.803 494.917 954.204 491.425 954.274 487.917C954.196 481.296 951.775 474.967 950.619 468.453C948.978 459.209 949.8 449.252 945.609 440.899C945.192 439.918 944.532 439.066 943.696 438.428C942.647 437.862 941.471 437.591 940.288 437.642C936.502 437.483 932.713 437.448 928.922 437.539C927.86 437.565 926.618 437.702 926.068 438.635C925.506 439.59 925.997 440.809 926.492 441.802C928.837 446.518 932.639 450.288 929.886 455.945Z" fill="#2F2E41"/>
<path d="M839.951 290.247C838.892 291.145 838.174 292.397 837.923 293.783C837.672 295.17 837.904 296.603 838.579 297.832C839.418 299.261 840.924 300.591 840.594 302.225C840.252 303.921 838.221 304.497 836.556 304.769C821.877 307.168 807.592 311.583 793.359 315.985L778.43 320.602C774.126 321.934 769.746 323.301 766.027 325.895C762.614 328.284 759.913 331.598 758.224 335.47C756.518 339.401 755.931 343.731 755.322 347.99C753.079 363.662 750.217 379.488 743.41 393.702L779.618 405.898C783.128 407.222 786.764 408.162 790.467 408.703C793.996 409.004 797.549 408.827 801.033 408.177C800.809 399.872 800.672 391.316 800.447 383.01C800.423 380.387 800.257 377.767 799.95 375.163C799.407 371.182 798.205 367.31 797.83 363.31C799.501 361.894 801.929 362.246 804.093 362.311C809.032 362.459 813.855 360.695 818.247 358.37C822.64 356.045 826.725 353.148 831.093 350.775C838.371 346.821 846.649 344.161 852.205 337.919C849.375 348.999 842.689 358.654 841.396 370.032C840.089 381.528 844.643 392.778 849.102 403.407L863.346 437.367C864.919 441.116 867.013 445.331 870.891 446.225C873.307 446.783 875.8 445.851 878.042 444.772C891.153 438.465 901.642 426.606 915.64 422.814C914.597 415.693 909.12 409.806 906.018 403.348C903.401 397.901 902.547 391.768 900.804 385.965C899.06 380.161 896.065 374.28 890.798 371.522C888.297 370.212 884.927 369.072 884.694 366.198C884.678 365.275 884.868 364.361 885.251 363.525C887.126 358.676 890.038 354.322 893.771 350.784C894.252 350.403 894.636 349.909 894.891 349.344C895.03 348.784 895.058 348.201 894.974 347.63C894.71 343.006 897.12 338.68 899.809 334.962C902.498 331.244 905.605 327.705 907.12 323.343C909.727 315.843 907.14 307.6 904.563 300.088C903.522 297.053 902.426 293.923 900.287 291.571C896.932 287.883 891.707 286.82 886.823 286.27C871.031 284.492 852.499 280.239 839.951 290.247Z" fill="#2F2E41"/>
<g opacity="0.1">
<path d="M838.306 292.49C838.838 292.379 839.33 292.124 839.732 291.751C840.135 291.378 840.432 290.901 840.594 290.369C840.635 290.161 840.648 289.948 840.631 289.736C840.404 289.906 840.174 290.069 839.951 290.248C839.225 290.839 838.659 291.611 838.306 292.49Z" fill="black"/>
</g>
<path d="M864.905 172.695C865.093 176.401 864.004 180.366 861.232 182.743C860.342 183.506 859.31 184.084 858.454 184.886C857.693 185.689 857.112 186.652 856.751 187.708C856.389 188.765 856.256 189.89 856.36 191.005C856.465 192.119 856.805 193.197 857.356 194.164C857.907 195.13 858.656 195.961 859.552 196.6C862.431 198.405 866.092 197.918 869.415 197.326C873.847 196.689 878.191 195.525 882.36 193.855C886.554 192.163 890.123 189.16 892.564 185.27C888.945 183.198 886.975 178.845 886.755 174.595C886.535 170.34 887.671 165.511 885.048 162.21C882.521 159.031 877.767 159.054 873.916 160.145C871.983 160.693 870.112 161.45 868.176 161.986C867.195 162.258 863.955 162.265 863.315 163.007C862.149 164.356 864.796 170.552 864.905 172.695Z" fill="#FBBEBE"/>
<path opacity="0.1" d="M864.905 172.695C865.093 176.401 864.004 180.366 861.232 182.743C860.342 183.506 859.31 184.084 858.454 184.886C857.693 185.689 857.112 186.652 856.751 187.708C856.389 188.765 856.256 189.89 856.36 191.005C856.465 192.119 856.805 193.197 857.356 194.164C857.907 195.13 858.656 195.961 859.552 196.6C862.431 198.405 866.092 197.918 869.415 197.326C873.847 196.689 878.191 195.525 882.36 193.855C886.554 192.163 890.123 189.16 892.564 185.27C888.945 183.198 886.975 178.845 886.755 174.595C886.535 170.34 887.671 165.511 885.048 162.21C882.521 159.031 877.767 159.054 873.916 160.145C871.983 160.693 870.112 161.45 868.176 161.986C867.195 162.258 863.955 162.265 863.315 163.007C862.149 164.356 864.796 170.552 864.905 172.695Z" fill="black"/>
<path d="M876.006 172.467C887.843 172.467 897.439 162.609 897.439 150.449C897.439 138.289 887.843 128.431 876.006 128.431C864.168 128.431 854.572 138.289 854.572 150.449C854.572 162.609 864.168 172.467 876.006 172.467Z" fill="#FBBEBE"/>
<path d="M808.325 319.376C807.94 321.116 807.257 322.771 806.307 324.265C803.808 328.826 802.905 334.129 803.749 339.291C804.201 341.851 805.259 344.257 806.831 346.297C808.402 348.337 810.437 349.949 812.758 350.99C814.764 351.802 817.25 352.016 818.905 350.595C816.041 346.768 815.889 341.544 816.061 336.721C816.011 335.82 816.22 334.925 816.662 334.145C816.779 333.96 816.933 333.801 817.112 333.679C817.292 333.557 817.494 333.474 817.706 333.435C817.918 333.396 818.136 333.403 818.346 333.454C818.555 333.505 818.753 333.6 818.925 333.733C818.852 336.77 819.424 339.786 820.599 342.574C821.053 343.646 821.827 344.83 822.965 344.8C824.597 344.756 825.038 342.485 824.976 340.809C824.724 333.98 824.398 326.868 821.193 320.879C820.02 318.687 818.457 316.629 818.011 314.17C817.99 313.317 817.702 312.494 817.191 311.821C816.838 311.536 816.425 311.339 815.986 311.244C814.141 310.709 809.773 309.041 808.25 310.816C806.618 312.72 808.62 317.1 808.325 319.376Z" fill="#FBBEBE"/>
<path d="M840.156 202.39C837.698 202.105 835.757 204.417 834.411 206.548C829.394 214.496 825.782 223.291 823.743 232.529C822.705 237.244 822.053 242.142 819.874 246.427C819.349 247.316 818.926 248.265 818.614 249.255C818.428 250.766 818.362 252.29 818.418 253.812C818.191 256.563 816.609 259.007 816.077 261.713C815.761 263.327 815.825 264.997 815.543 266.617C815.05 269.454 813.532 271.977 812.561 274.681C810.852 279.442 810.867 284.67 809.609 289.577C809.455 290.386 809.115 291.145 808.616 291.791C807.763 292.753 806.4 292.988 805.284 293.604C804.407 294.156 803.654 294.895 803.077 295.77C802.5 296.645 802.111 297.637 801.938 298.679C801.605 300.764 801.567 302.886 801.824 304.982L802.809 318.006C803.825 317.568 804.488 316.388 805.334 315.665C806.884 314.341 809.16 314.638 811.143 315.007L814.032 315.545C816.986 316.095 820.2 316.796 822.095 319.189C823.601 316.769 822.74 313.203 825.055 311.593C825.808 311.07 826.741 310.893 827.535 310.437C828.282 309.94 828.902 309.265 829.341 308.47C829.78 307.674 830.026 306.781 830.057 305.867C830.103 304.041 829.858 302.218 829.332 300.473C833.042 298.863 835.344 295.004 836.795 291.144C838.393 286.473 839.548 281.654 840.247 276.755C843.598 257.4 846.663 237.906 846.967 218.25C847.178 214.962 846.825 211.661 845.923 208.499C844.867 205.395 843.337 202.757 840.156 202.39Z" fill="#D0CDE1"/>
<path d="M894.192 181.311C890.654 185.122 886.132 187.82 881.156 189.088C876.206 190.339 871.152 191.104 866.061 191.373C864.495 191.642 862.889 191.5 861.392 190.959C859.953 190.289 858.859 188.538 859.445 187.03C859.728 186.564 859.92 186.045 860.008 185.503C859.983 184.162 858.062 184.051 856.815 184.447C848.564 187.068 840.651 192.26 836.843 200.223C834.692 204.721 833.982 209.78 833.3 214.742C831.506 227.795 829.717 241.131 832.122 254.079C833.404 260.984 835.87 267.714 836.024 274.741C836.11 278.679 835.463 282.601 835.494 286.54C835.379 287.92 835.739 289.297 836.509 290.433C837.103 291.141 837.998 291.588 838.412 292.42C839.105 293.812 838.179 295.722 839.091 296.974C840.213 298.515 842.557 297.408 844.103 296.321C851.881 290.896 861.274 288.466 870.625 289.462C881.859 290.701 893.021 296.851 903.916 293.777C903.355 292.937 902.871 292.045 902.47 291.113C897.037 272.775 897.405 252.277 905.535 235.023C908.313 229.129 911.999 223.512 913.063 217.055C913.492 214.035 913.526 210.969 913.163 207.94C912.591 202.078 911.232 196.168 908.131 191.213C905.03 186.257 899.899 181.891 894.192 181.311Z" fill="#D0CDE1"/>
<path d="M842.338 325.043C841.465 327.438 841.046 329.981 841.104 332.537C841.023 334.983 841.142 337.43 841.458 339.855C841.64 341.927 842.359 343.912 843.54 345.603C844.145 346.434 844.976 347.064 845.928 347.412C846.88 347.759 847.911 347.81 848.891 347.557C849.663 347.228 850.353 346.726 850.911 346.088C851.469 345.45 851.882 344.692 852.12 343.869C852.581 342.225 852.919 340.546 853.133 338.849C854.072 333.851 856.627 329.16 856.671 324.07C856.707 323.466 856.614 322.862 856.399 322.299C855.47 320.207 850.917 317.859 848.693 318.211C845.91 318.652 843.347 322.627 842.338 325.043Z" fill="#FBBEBE"/>
<path opacity="0.1" d="M904.191 199.899C903.767 204.277 907.889 207.577 909.519 211.645C910.185 213.545 910.565 215.537 910.644 217.555C911.789 231.553 910.899 245.632 910.01 259.65C909.847 264.316 909.284 268.959 908.326 273.524C906.025 283.103 900.366 291.406 894.819 299.461C892.913 302.69 889.998 305.16 886.549 306.468L867.519 315.938C865.134 317.02 862.868 318.358 860.759 319.931C858.31 321.903 856.385 324.477 855.163 327.416C851.471 325.478 847.637 323.738 843.945 321.8C843.081 321.346 842.114 320.754 841.965 319.769C841.765 318.447 843.11 317.514 844.035 316.573C845.767 314.813 846.301 312.204 847.238 309.895C850.301 302.35 858.004 297.52 860.783 289.86C861.851 286.916 862.177 283.589 864.07 281.122C865.154 279.885 866.372 278.781 867.701 277.83C870.635 275.272 873.33 272.438 875.751 269.365C876.839 268.206 877.729 266.867 878.384 265.405C879.215 263.231 878.966 260.806 879.01 258.471C879.151 250.825 882.517 243.694 884.577 236.346C886.517 229.425 887.327 222.166 889.872 215.456C892.417 208.745 897.404 201.703 904.191 199.899Z" fill="black"/>
<path d="M906.664 199.899C906.24 204.277 910.362 207.577 911.992 211.645C912.658 213.545 913.038 215.537 913.117 217.555C914.262 231.553 913.373 245.632 912.483 259.65C912.32 264.316 911.757 268.959 910.799 273.524C908.498 283.103 902.839 291.406 897.292 299.461C895.387 302.69 892.471 305.16 889.022 306.468L869.992 315.938C867.607 317.02 865.341 318.358 863.232 319.931C860.783 321.903 858.859 324.477 857.636 327.416C853.944 325.478 850.11 323.738 846.418 321.8C845.554 321.346 844.588 320.754 844.438 319.769C844.238 318.447 845.583 317.514 846.508 316.573C848.24 314.813 848.774 312.204 849.711 309.895C852.774 302.35 860.477 297.52 863.256 289.86C864.324 286.916 864.65 283.589 866.544 281.122C867.627 279.885 868.845 278.781 870.175 277.83C873.109 275.272 875.804 272.438 878.224 269.365C879.312 268.206 880.202 266.867 880.857 265.405C881.689 263.231 881.44 260.806 881.483 258.471C881.625 250.825 884.99 243.694 887.05 236.346C888.99 229.425 889.8 222.166 892.345 215.456C894.89 208.745 899.877 201.703 906.664 199.899Z" fill="#D0CDE1"/>
<path d="M886.635 116.411C880.031 115.582 873.345 117.004 867.604 120.458C868.45 120.491 869.3 120.55 870.155 120.656C876.498 121.443 882.44 124.256 887.142 128.698C891.845 133.14 895.071 138.987 896.366 145.414C897.66 151.841 896.957 158.523 894.356 164.518C891.755 170.512 887.387 175.516 881.869 178.824C889.731 179.118 897.4 176.28 903.273 170.902C909.146 165.524 912.769 158.023 913.385 149.965C914 141.908 911.56 133.917 906.575 127.664C901.59 121.411 894.446 117.379 886.635 116.411V116.411Z" fill="#2F2E41"/>
<path d="M896.017 133.83C896.758 135.553 897.161 137.409 897.202 139.292C897.244 141.175 896.923 143.048 896.259 144.804C896.114 144.35 895.947 143.904 895.759 143.468C891.988 134.85 880.374 131.283 869.818 135.501C863.599 137.985 859.137 142.618 857.289 147.766C854.601 139.436 860.061 129.864 870.077 125.862C880.633 121.645 892.247 125.212 896.017 133.83Z" fill="#2F2E41"/>
<g opacity="0.1">
<path d="M896.077 144.12C895.589 138.072 893.404 132.299 889.786 127.501C886.168 122.703 881.273 119.086 875.694 117.089C872.854 117.807 870.129 118.942 867.604 120.458C868.45 120.491 869.3 120.55 870.155 120.656C876.278 121.417 882.033 124.066 886.661 128.255C891.289 132.444 894.571 137.976 896.077 144.12V144.12Z" fill="black"/>
<path d="M901.023 121.255C900.535 115.207 898.35 109.434 894.732 104.636C891.114 99.8378 886.219 96.221 880.64 94.2239C877.8 94.9423 875.075 96.077 872.55 97.5931C873.396 97.6256 874.246 97.6849 875.101 97.791C881.224 98.5517 886.979 101.201 891.607 105.39C896.235 109.579 899.518 115.111 901.023 121.255V121.255Z" fill="black"/>
<path d="M901.149 87.1035C900.855 83.4533 899.536 79.9691 897.352 77.0735C895.169 74.1778 892.215 71.9951 888.848 70.7898C887.134 71.2234 885.489 71.9082 883.965 72.8231C884.476 72.8427 884.989 72.8785 885.505 72.9426C889.2 73.4017 892.674 75.0007 895.466 77.5287C898.259 80.0568 900.241 83.3952 901.149 87.1035V87.1035Z" fill="black"/>
<path d="M912.556 139.875C913.15 147.389 911.088 154.871 906.748 160.951C902.409 167.03 896.083 171.3 888.928 172.979C886.87 175.275 884.49 177.245 881.868 178.823C886.597 179.001 891.302 178.046 895.609 176.033C899.916 174.02 903.709 171.005 906.686 167.226C909.663 163.448 911.744 159.009 912.762 154.262C913.781 149.515 913.711 144.589 912.556 139.875V139.875Z" fill="black"/>
</g>
<path d="M817.682 340.64L813.738 218.143" stroke="#6C63FF" stroke-width="2" stroke-miterlimit="10"/>
<path d="M813.738 235.476C823.056 235.476 830.61 227.716 830.61 218.143C830.61 208.571 823.056 200.811 813.738 200.811C804.42 200.811 796.866 208.571 796.866 218.143C796.866 227.716 804.42 235.476 813.738 235.476Z" fill="#45B69C"/>
<path d="M816.169 293.641C816.169 293.641 812.046 240.497 762.861 248.362Z" fill="#45B69C"/>
</g>
<defs>
<linearGradient id="paint0_linear_325_154" x1="890.784" y1="170.359" x2="890.784" y2="156.931" gradientUnits="userSpaceOnUse">
<stop stop-color="#808080" stop-opacity="0.25"/>
<stop offset="0.53514" stop-color="#808080" stop-opacity="0.12"/>
<stop offset="1" stop-color="#808080" stop-opacity="0.1"/>
</linearGradient>
<clipPath id="clip0_325_154">
<rect width="1000" height="720" fill="white"/>
</clipPath>
</defs>
</svg>
