<svg width="1000" height="720" viewBox="0 0 1000 720" fill="none" xmlns="http://www.w3.org/2000/svg">
<g clip-path="url(#clip0_325_2)">
<path opacity="0.1" d="M581.017 126.978C516.909 124.751 455.802 104.071 397.54 81.4504C339.278 58.8293 281.532 33.7613 218.924 21.7746C178.671 14.0565 132.636 12.9709 100.209 34.534C68.9973 55.2784 58.9156 91.0912 53.4927 124.319C49.414 149.323 47.0478 175.633 58.1975 199.045C65.959 215.291 79.7326 228.952 89.2619 244.517C122.407 298.673 98.9753 365.46 63.0495 418.383C46.2007 443.221 26.6543 466.854 13.654 493.265C0.653692 519.676 -5.36768 549.933 6.01217 576.868C17.2907 603.546 44.1568 623.619 73.2693 637.722C132.397 666.341 202.066 674.528 270.005 679.22C420.392 689.495 571.589 685.043 722.372 680.59C778.176 678.934 834.228 677.269 889.12 668.631C919.604 663.838 951.083 656.24 973.217 637.896C1001.31 614.604 1008.28 575.176 989.449 545.968C957.869 496.991 870.559 484.82 848.48 432.256C836.336 403.324 848.812 371.09 866.471 344.255C904.339 286.695 967.831 236.191 971.173 170.389C973.475 125.193 942.953 79.9417 895.758 58.5534C846.298 36.1163 777.706 38.9497 741.219 76.032C703.645 114.237 637.612 128.937 581.017 126.978Z" fill="#45B69C"/>
<path d="M223.04 666.984C223.04 666.984 172.401 628.734 162.835 580.079C158.956 559.644 148.55 541.016 133.179 526.99C125.826 520.392 117.884 514.479 109.453 509.327" stroke="#535461" stroke-width="2" stroke-miterlimit="10"/>
<path d="M103.257 478.675C107.694 484.673 109.701 510.091 109.701 510.091C109.701 510.091 85.975 500.754 81.528 494.765C79.3926 491.886 78.4893 488.277 79.0168 484.733C79.5443 481.189 81.4593 477.999 84.3407 475.865C87.2221 473.732 90.8338 472.829 94.3812 473.356C97.9286 473.883 101.121 475.797 103.257 478.675V478.675Z" fill="#45B69C"/>
<path d="M145.811 498.62C146.272 506.062 134.146 528.49 134.146 528.49C134.146 528.49 119.295 507.754 118.826 500.312C118.647 496.764 119.875 493.289 122.243 490.639C124.611 487.989 127.929 486.379 131.477 486.156C135.026 485.933 138.519 487.117 141.2 489.45C143.882 491.783 145.535 495.077 145.802 498.62H145.811Z" fill="#45B69C"/>
<path d="M187.059 555.95C183.707 562.61 161.896 575.857 161.896 575.857C161.896 575.857 159.567 550.467 162.918 543.806C164.568 540.674 167.382 538.315 170.756 537.235C174.129 536.155 177.792 536.442 180.956 538.034C184.12 539.625 186.532 542.394 187.674 545.745C188.815 549.096 188.594 552.76 187.059 555.95V555.95Z" fill="#45B69C"/>
<path d="M208.502 606.324C206.32 613.454 187.068 630.187 187.068 630.187C187.068 630.187 180.466 605.561 182.648 598.422C183.697 594.997 186.065 592.128 189.231 590.447C192.397 588.765 196.101 588.41 199.53 589.458C202.958 590.505 205.829 592.871 207.512 596.034C209.194 599.197 209.551 602.899 208.502 606.324V606.324Z" fill="#45B69C"/>
<path d="M112.197 546.52C119.562 547.514 142.847 537.008 142.847 537.008C142.847 537.008 123.199 520.744 115.796 519.75C112.244 519.273 108.647 520.226 105.797 522.399C102.947 524.572 101.078 527.787 100.6 531.337C100.123 534.887 101.076 538.481 103.251 541.328C105.426 544.175 108.644 546.043 112.197 546.52V546.52Z" fill="#45B69C"/>
<path d="M138.022 605.128C145.388 603.868 164.419 586.896 164.419 586.896C164.419 586.896 140.793 577.255 133.437 578.515C131.676 578.803 129.989 579.438 128.474 580.381C126.96 581.324 125.647 582.558 124.612 584.011C123.577 585.463 122.84 587.107 122.444 588.845C122.048 590.584 122.001 592.384 122.305 594.142C122.609 595.899 123.258 597.578 124.215 599.084C125.172 600.589 126.418 601.89 127.881 602.911C129.344 603.933 130.995 604.654 132.739 605.035C134.483 605.416 136.285 605.447 138.041 605.128H138.022Z" fill="#45B69C"/>
<path d="M170.937 658.66C178.404 658.66 200.04 645.146 200.04 645.146C200.04 645.146 178.395 631.65 170.928 631.65C167.343 631.65 163.906 633.073 161.371 635.606C158.836 638.138 157.412 641.573 157.412 645.155C157.412 648.737 158.836 652.172 161.371 654.704C163.906 657.237 167.343 658.66 170.928 658.66H170.937Z" fill="#45B69C"/>
<path d="M714.97 336.151C714.97 336.151 746.181 280.909 793.229 264.995C812.985 258.439 830.081 245.66 841.953 228.575C847.521 220.406 852.325 211.744 856.306 202.697" stroke="#535461" stroke-width="2" stroke-miterlimit="10"/>
<path d="M885.842 192.578C880.484 197.766 855.542 203.139 855.542 203.139C855.542 203.139 861.665 178.393 867.023 173.195C869.61 170.775 873.044 169.467 876.586 169.552C880.128 169.638 883.495 171.109 885.962 173.65C888.429 176.191 889.799 179.598 889.776 183.138C889.754 186.678 888.341 190.068 885.842 192.578Z" fill="#45B69C"/>
<path d="M871.737 237.314C864.372 238.767 840.553 229.734 840.553 229.734C840.553 229.734 859.151 212.255 866.471 210.829C868.228 210.439 870.046 210.404 871.817 210.726C873.588 211.048 875.277 211.72 876.785 212.703C878.293 213.686 879.589 214.96 880.597 216.45C881.605 217.94 882.305 219.617 882.656 221.381C883.007 223.145 883.001 224.962 882.64 226.724C882.278 228.486 881.568 230.158 880.551 231.643C879.534 233.127 878.23 234.393 876.717 235.367C875.203 236.341 873.51 237.003 871.737 237.314V237.314Z" fill="#45B69C"/>
<path d="M820.399 285.776C813.346 283.338 797.317 263.504 797.317 263.504C797.317 263.504 822.176 257.819 829.247 260.257C830.946 260.82 832.516 261.715 833.866 262.889C835.216 264.063 836.319 265.494 837.111 267.097C837.904 268.701 838.369 270.446 838.481 272.231C838.593 274.016 838.349 275.805 837.763 277.495C837.177 279.185 836.261 280.742 835.068 282.075C833.875 283.408 832.429 284.492 830.813 285.262C829.198 286.032 827.445 286.474 825.658 286.563C823.87 286.651 822.082 286.383 820.399 285.776V285.776Z" fill="#45B69C"/>
<path d="M773.222 313.705C765.857 312.49 746.743 295.61 746.743 295.61C746.743 295.61 770.304 285.803 777.66 287.017C781.201 287.599 784.365 289.563 786.457 292.476C788.549 295.389 789.397 299.013 788.814 302.55C788.232 306.088 786.267 309.25 783.351 311.34C780.436 313.43 776.809 314.277 773.268 313.695L773.222 313.705Z" fill="#45B69C"/>
<path d="M819.755 210.388C819.745 217.848 833.289 239.494 833.289 239.494C833.289 239.494 846.814 217.876 846.814 210.424C846.861 208.622 846.546 206.828 845.889 205.149C845.231 203.47 844.243 201.94 842.984 200.648C841.724 199.357 840.219 198.33 838.556 197.629C836.894 196.928 835.107 196.567 833.303 196.567C831.498 196.567 829.712 196.928 828.049 197.629C826.386 198.33 824.881 199.357 823.622 200.648C822.362 201.94 821.375 203.47 820.717 205.149C820.059 206.828 819.744 208.622 819.791 210.424L819.755 210.388Z" fill="#45B69C"/>
<path d="M765.037 243.744C767.265 250.864 786.637 267.469 786.637 267.469C786.637 267.469 793.082 242.797 790.835 235.676C789.67 232.377 787.27 229.659 784.139 228.093C781.008 226.528 777.391 226.237 774.05 227.283C770.709 228.328 767.904 230.628 766.226 233.699C764.549 236.769 764.129 240.371 765.056 243.744H765.037Z" fill="#45B69C"/>
<path d="M716.36 283.457C717.354 290.817 733.632 310.476 733.632 310.476C733.632 310.476 744.137 287.248 743.143 279.861C742.946 278.071 742.392 276.338 741.515 274.765C740.638 273.193 739.455 271.811 738.035 270.701C736.616 269.592 734.989 268.778 733.249 268.306C731.51 267.834 729.694 267.715 727.908 267.955C726.122 268.194 724.402 268.789 722.849 269.703C721.296 270.616 719.942 271.831 718.866 273.276C717.79 274.72 717.014 276.365 716.584 278.114C716.153 279.862 716.077 281.679 716.36 283.457V283.457Z" fill="#45B69C"/>
<path opacity="0.25" d="M885.842 192.578C880.484 197.766 855.542 203.139 855.542 203.139C855.542 203.139 861.665 178.393 867.023 173.195C869.61 170.775 873.044 169.467 876.586 169.552C880.128 169.638 883.495 171.109 885.962 173.65C888.429 176.191 889.799 179.598 889.776 183.138C889.754 186.678 888.341 190.068 885.842 192.578Z" fill="black"/>
<path opacity="0.25" d="M871.737 237.314C864.372 238.767 840.553 229.734 840.553 229.734C840.553 229.734 859.151 212.255 866.471 210.829C868.228 210.439 870.046 210.404 871.817 210.726C873.588 211.048 875.277 211.72 876.785 212.703C878.293 213.686 879.589 214.96 880.597 216.45C881.605 217.94 882.305 219.617 882.656 221.381C883.007 223.145 883.001 224.962 882.64 226.724C882.278 228.486 881.568 230.158 880.551 231.643C879.534 233.127 878.23 234.393 876.717 235.367C875.203 236.341 873.51 237.003 871.737 237.314V237.314Z" fill="black"/>
<path opacity="0.25" d="M820.399 285.776C813.346 283.338 797.317 263.504 797.317 263.504C797.317 263.504 822.176 257.819 829.247 260.257C830.946 260.82 832.516 261.715 833.866 262.889C835.216 264.063 836.319 265.494 837.111 267.097C837.904 268.701 838.369 270.446 838.481 272.231C838.593 274.016 838.349 275.805 837.763 277.495C837.177 279.185 836.261 280.742 835.068 282.075C833.875 283.408 832.429 284.492 830.813 285.262C829.198 286.032 827.445 286.474 825.658 286.563C823.87 286.651 822.082 286.383 820.399 285.776V285.776Z" fill="black"/>
<path opacity="0.25" d="M773.222 313.705C765.857 312.49 746.743 295.61 746.743 295.61C746.743 295.61 770.304 285.803 777.66 287.017C781.201 287.599 784.365 289.563 786.457 292.476C788.549 295.389 789.397 299.013 788.814 302.55C788.232 306.088 786.267 309.25 783.351 311.34C780.436 313.43 776.809 314.277 773.268 313.695L773.222 313.705Z" fill="black"/>
<path opacity="0.25" d="M819.755 210.388C819.745 217.848 833.289 239.494 833.289 239.494C833.289 239.494 846.814 217.876 846.814 210.424C846.861 208.622 846.546 206.828 845.889 205.149C845.231 203.47 844.243 201.94 842.984 200.648C841.724 199.357 840.219 198.33 838.556 197.629C836.894 196.928 835.107 196.567 833.303 196.567C831.498 196.567 829.712 196.928 828.049 197.629C826.386 198.33 824.881 199.357 823.622 200.648C822.362 201.94 821.375 203.47 820.717 205.149C820.059 206.828 819.744 208.622 819.791 210.424L819.755 210.388Z" fill="black"/>
<path opacity="0.25" d="M765.037 243.744C767.265 250.864 786.637 267.469 786.637 267.469C786.637 267.469 793.082 242.797 790.835 235.676C789.67 232.377 787.27 229.659 784.139 228.093C781.008 226.528 777.391 226.237 774.05 227.283C770.709 228.328 767.904 230.628 766.226 233.699C764.549 236.769 764.129 240.371 765.056 243.744H765.037Z" fill="black"/>
<path opacity="0.25" d="M716.36 283.457C717.354 290.817 733.632 310.476 733.632 310.476C733.632 310.476 744.137 287.248 743.143 279.861C742.946 278.071 742.392 276.338 741.515 274.765C740.638 273.193 739.455 271.811 738.035 270.701C736.616 269.592 734.989 268.778 733.249 268.306C731.51 267.834 729.694 267.715 727.908 267.955C726.122 268.194 724.402 268.789 722.849 269.703C721.296 270.616 719.942 271.831 718.866 273.276C717.79 274.72 717.014 276.365 716.584 278.114C716.153 279.862 716.077 281.679 716.36 283.457V283.457Z" fill="black"/>
<path d="M716.765 335.056C716.765 335.056 722.897 271.912 759.412 238.335C774.813 224.341 785.26 205.737 789.187 185.31C790.974 175.6 791.865 165.746 791.848 155.873" stroke="#535461" stroke-width="2" stroke-miterlimit="10"/>
<path d="M814.737 134.567C811.975 141.485 791.314 156.498 791.314 156.498C791.314 156.498 786.876 131.393 789.666 124.475C791.009 121.154 793.618 118.501 796.918 117.101C800.219 115.701 803.941 115.668 807.265 117.01C810.59 118.352 813.245 120.959 814.646 124.256C816.047 127.554 816.08 131.273 814.737 134.595V134.567Z" fill="#45B69C"/>
<path d="M819.994 181.226C813.89 185.513 788.414 186.92 788.414 186.92C788.414 186.92 798.339 163.425 804.443 159.138C805.891 158.056 807.541 157.274 809.297 156.841C811.052 156.407 812.877 156.329 814.662 156.613C816.448 156.896 818.159 157.535 819.693 158.491C821.228 159.447 822.554 160.7 823.595 162.178C824.636 163.655 825.369 165.327 825.752 167.092C826.134 168.858 826.159 170.683 825.823 172.458C825.487 174.233 824.798 175.923 823.797 177.428C822.796 178.932 821.502 180.22 819.994 181.217V181.226Z" fill="#45B69C"/>
<path d="M792.686 246.338C785.247 246.964 762.542 235.299 762.542 235.299C762.542 235.299 782.982 220.028 790.421 219.403C793.993 219.103 797.539 220.233 800.277 222.545C803.016 224.856 804.723 228.16 805.023 231.73C805.324 235.299 804.193 238.842 801.879 241.578C799.565 244.314 796.258 246.02 792.686 246.32V246.338Z" fill="#45B69C"/>
<path d="M760.913 290.946C753.685 292.786 729.342 285.178 729.342 285.178C729.342 285.178 746.9 266.678 754.127 264.801C757.597 263.902 761.282 264.417 764.372 266.233C767.462 268.049 769.703 271.017 770.603 274.484C771.503 277.951 770.987 281.633 769.17 284.72C767.353 287.807 764.383 290.047 760.913 290.946V290.946Z" fill="#45B69C"/>
<path d="M761.557 177.657C764.577 184.473 785.698 198.815 785.698 198.815C785.698 198.815 789.289 173.572 786.269 166.755C784.764 163.566 782.07 161.091 778.764 159.86C775.457 158.629 771.8 158.738 768.573 160.165C765.346 161.592 762.806 164.224 761.495 167.497C760.184 170.771 760.206 174.427 761.557 177.684V177.657Z" fill="#45B69C"/>
<path d="M725.061 230.295C729.986 235.897 754.422 243.238 754.422 243.238C754.422 243.238 750.297 218.078 745.371 212.476C744.209 211.115 742.787 209.998 741.188 209.191C739.59 208.384 737.847 207.902 736.061 207.773C734.275 207.645 732.481 207.872 730.783 208.443C729.086 209.013 727.519 209.915 726.173 211.095C724.827 212.276 723.73 213.712 722.944 215.32C722.159 216.928 721.701 218.676 721.598 220.462C721.494 222.249 721.747 224.038 722.341 225.726C722.936 227.414 723.86 228.967 725.061 230.295V230.295Z" fill="#45B69C"/>
<path d="M696.62 286.337C700.524 292.684 723.366 304.045 723.366 304.045C723.366 304.045 723.56 278.554 719.684 272.197C717.754 269.262 714.756 267.194 711.326 266.43C707.895 265.667 704.302 266.268 701.308 268.107C698.314 269.946 696.155 272.879 695.288 276.282C694.422 279.685 694.916 283.292 696.666 286.337H696.62Z" fill="#45B69C"/>
<path d="M669.809 87.7703C671.338 82.168 673.179 76.538 674.468 70.8621C672.921 76.538 671.071 82.1864 669.809 87.7703Z" fill="url(#paint0_linear_325_2)"/>
<path d="M662.959 141.733C662.83 141.513 662.738 141.292 662.637 141.089C662.637 140.997 662.545 140.924 662.508 140.832C662.308 140.926 662.102 141.009 661.891 141.08C661.486 141.237 661.072 141.384 660.648 141.503C660.225 141.623 660.05 141.687 659.728 141.761C659.461 141.853 659.187 141.924 658.908 141.973L658.982 142.138C659.323 142.065 659.654 142 659.995 141.908L660.087 143.049C660.473 143.049 660.833 142.994 661.182 142.994C661.348 142.985 661.514 142.985 661.68 142.994C662.398 142.994 663.024 142.994 663.521 142.994C663.328 142.58 663.125 142.147 662.959 141.733ZM849.861 438.99C845.534 433.167 836.898 370.667 836.898 370.667C836.898 370.667 819.911 326.225 824.542 308.489C829.173 290.753 811.892 245.373 811.892 245.373C811.892 245.373 800.475 240.414 799.858 233.055C799.858 233.055 753.243 218.336 751.061 207.297C749.293 198.245 720.383 191.75 709.998 189.698C706.831 176.93 703.645 165.017 701.297 158.513C700.662 156.489 700.064 154.741 699.511 153.361C695.543 143.242 683.279 142.322 674.385 143.132C674 141.407 673.284 139.773 672.277 138.32C672.13 137.821 671.838 137.376 671.439 137.042C671.248 136.879 671.045 136.732 670.831 136.6C670.67 136.302 670.458 136.034 670.205 135.809C669.953 135.582 669.675 135.384 669.377 135.22C669.163 135.105 668.941 135.003 668.714 134.917C668.18 134.714 667.628 134.563 667.066 134.466C666.41 134.331 665.745 134.245 665.077 134.208C666.702 133.498 668.151 132.44 669.321 131.108C670.118 130.173 670.71 129.083 671.061 127.907C671.353 126.929 671.484 125.91 671.448 124.89C671.209 125.31 670.932 125.707 670.62 126.076C671.006 122.001 668.852 117.861 667.618 113.804C666.123 108.523 665.846 102.972 666.808 97.5677C668.042 89.4171 671.098 81.1745 673.17 72.8768C673.175 72.831 673.175 72.7846 673.17 72.7388C674.256 68.618 674.929 64.3992 675.177 60.145C675.536 51.5621 673.336 42.9975 669.8 35.1781C666.661 28.2511 662.029 21.4344 654.94 18.6194C649.674 16.4944 643.772 16.8348 638.1 16.4852C625.376 15.6941 613.242 11.2232 601.144 7.15714C589.046 3.09106 576.598 -0.60705 563.864 0.101295C551.131 0.809639 538.03 6.94556 532.22 18.2055C530.379 21.7196 529.32 25.6293 527.119 28.9318C522.995 35.1597 515.611 38.2783 509.451 42.5744C503.292 46.8704 497.869 52.9696 495.641 60.2462C494.424 64.1666 494.252 68.3364 495.143 72.3432V72.3432C495.344 73.2481 495.602 74.1392 495.917 75.011C496.791 77.4417 498.154 79.6677 499.922 81.5517C501.255 82.9441 502.788 84.1315 504.47 85.075V85.075C506.582 86.2449 508.843 87.1237 511.191 87.6876C511.108 87.9636 511.025 88.258 510.933 88.5432C510.786 89.0123 510.657 89.4631 510.519 89.9691C510.215 91.1006 509.93 92.2505 509.69 93.4096C509.681 93.4921 509.681 93.5755 509.69 93.658C508.56 98.8905 507.992 104.229 507.996 109.582C507.994 112.114 508.124 114.644 508.383 117.162V117.162C512.066 154.493 542.909 183.94 581.017 185.853C582.324 185.918 583.641 185.954 584.976 185.954C585.584 185.954 586.182 185.954 586.817 185.954C587.416 186.745 588.005 187.555 588.567 188.346C589.128 189.137 589.644 189.947 590.132 190.738L588.797 189.358L587.462 188.135C587.1 188.631 586.696 189.096 586.256 189.524C585.385 189.218 584.497 188.966 583.595 188.769V188.769C579.774 187.923 573.955 187.61 566.295 189.919C559.252 192.026 550.643 196.359 540.571 204.592L491.488 234.03L464.935 250.165L455.369 273.531C455.369 273.531 448.178 301.295 440.178 333.106C439.865 333.198 439.561 333.29 439.257 333.4C438.609 333.327 437.957 333.29 437.305 333.29C432.663 333.279 428.197 335.066 424.846 338.276C421.495 341.485 419.519 345.867 419.333 350.502C403.423 369.82 402.521 389.139 406.259 398.007C406.597 398.838 407.023 399.63 407.53 400.371C409.979 403.904 414.554 413.011 419.195 422.716C419.075 423.517 419.001 424.188 418.965 424.694C418.956 424.86 418.956 425.025 418.965 425.191C418.965 425.191 421.727 466.873 412.52 478.823C410.503 481.426 410.807 484.848 412.52 488.638C418.688 502.272 443.078 520.477 443.078 520.477C443.078 520.477 472.328 520.321 488.625 518.545C488.579 520.183 488.542 521.811 488.505 523.402C488.137 539.483 488.137 552.96 488.137 552.96L487.529 569.822C487.529 569.822 482.005 605.359 479.243 615.156C477.503 621.301 479.51 678.199 481.259 720.028H769.457C772.845 695.282 768.066 620.096 768.066 620.096C768.066 620.096 763.527 600.658 763.362 583.713C763.353 583.694 763.348 583.674 763.348 583.653C763.348 583.632 763.353 583.612 763.362 583.593C763.362 582.112 763.362 580.668 763.417 579.251L765.507 579.178L769.263 579.049H769.604C769.604 579.049 769.696 578.699 769.908 578.129C770.405 576.708 771.083 575.357 771.924 574.109C773.526 571.745 776.031 569.426 779.796 569.27C781.877 569.187 785.099 567.504 788.736 565.02C788.76 565.025 788.786 565.025 788.81 565.02C798.597 558.406 811.533 546.198 814.672 544.193C818.99 541.433 839.669 523.034 839.669 523.034C839.669 523.034 842.754 519.134 846.041 514.433L846.16 514.267C850.248 508.38 854.594 501.342 853.526 499.125C851.684 495.151 854.76 485.648 854.76 485.648C864.363 468.087 854.189 444.813 849.861 438.99ZM671.826 156.038C671.914 156.313 671.97 156.597 671.991 156.885C671.761 156.581 671.531 156.259 671.301 155.965L671.08 155.67L670.923 155.45L671.273 154.971C671.273 154.971 671.273 154.971 671.273 155.036C671.516 155.334 671.704 155.674 671.826 156.038V156.038ZM668.732 147.888C667.729 148.09 666.937 148.274 666.421 148.412C665.767 147.253 665.141 146.094 664.58 144.916C666.056 145.772 667.446 146.767 668.732 147.888V147.888ZM667.001 149.341C666.999 149.323 666.999 149.304 667.001 149.286L667.075 149.341C667.452 149.59 667.821 149.829 668.161 150.077C668.465 150.298 668.741 150.51 669.018 150.73C668.833 151.052 668.631 151.383 668.428 151.65C668.106 151.144 667.802 150.657 667.508 150.151C667.323 149.948 667.158 149.672 667.001 149.341ZM661.477 137.989C663.256 137.814 665.048 137.814 666.826 137.989V137.989C667.075 137.989 667.296 138.035 667.517 138.072C668.016 138.149 668.506 138.276 668.981 138.449C670.069 139.97 670.739 141.75 670.923 143.61L670.426 143.684L669.938 143.776C669.018 143.932 668.097 144.088 667.379 144.236L666.458 144.429C665.233 144.696 664.525 144.898 664.497 144.907C664.377 144.659 664.258 144.429 664.129 144.19C663.926 143.794 663.714 143.389 663.53 142.994C663.346 142.598 663.107 142.147 662.913 141.733C662.784 141.513 662.692 141.292 662.591 141.089C662.591 140.997 662.499 140.924 662.462 140.832C662.409 140.734 662.362 140.633 662.324 140.528C661.762 139.388 661.247 138.247 660.75 137.125C660.694 137.014 660.648 136.895 660.602 136.784L661.302 136.738V136.977L661.477 137.989ZM441.807 708.657C441.734 694.96 440.739 680.14 437.977 666.23C436.799 660.315 435.583 654.4 434.35 648.586C434.036 647.133 433.733 645.698 433.429 644.262L430.593 644.64H430.335C422.601 608.201 414.518 576.096 414.518 576.096C414.518 576.096 398.461 514.838 400.32 509.953C400.56 509.318 400.256 507.607 399.575 505.096C395.689 491.168 379.467 452.789 373.795 439.67C373.795 439.615 373.749 439.551 373.731 439.505C372.81 437.306 372.147 435.825 371.944 435.393L373.279 415.817L373.353 414.639L373.528 412.137L373.454 412.073L373.528 410.914C373.528 410.914 359.515 399.433 335.779 391.144C334.859 390.813 333.883 390.491 332.916 390.178C334.104 382.258 335.678 373.316 337.731 364.604C337.925 363.73 338.136 362.884 338.357 362.029C338.551 361.173 338.772 360.345 338.993 359.508C339.342 358.146 339.72 356.803 340.107 355.479C341.386 355.074 342.648 354.623 343.891 354.145L344.369 353.961C359.682 348.008 372.316 336.712 379.934 322.167C387.551 307.621 389.635 290.81 385.801 274.847V274.847C383.615 265.793 379.577 257.29 373.942 249.871C373.519 249.301 373.068 248.73 372.617 248.169C372.165 247.608 371.622 246.982 371.116 246.412C373.777 240.368 376.916 234.619 377.174 228.74C377.22 227.996 377.22 227.249 377.174 226.505V226.413C376.833 222.632 375.158 218.805 371.254 214.785C365.555 208.888 357.443 205.898 349.332 204.463C341.221 203.028 332.953 202.991 324.795 202.025C311.27 200.406 298.095 196.239 284.57 194.96C267.911 193.419 251.138 196.274 235.929 203.24C225.866 207.839 215.674 215.88 215.066 226.91C214.569 236.026 220.922 244.765 219.32 253.771C217.727 262.621 208.704 269.585 209.496 278.536C209.8 282.032 211.595 285.159 213.842 287.947C214.615 288.867 215.435 289.787 216.282 290.707C219.559 294.175 223.169 297.505 225.001 301.874C225.074 302.058 225.148 302.242 225.212 302.426C226.768 306.741 226.069 312.196 222.22 314.671C222.241 314.687 222.257 314.71 222.266 314.735V314.735C222.321 314.809 222.377 314.864 222.423 314.937C222.428 314.923 222.428 314.906 222.423 314.891C223.787 316.508 225.627 317.654 227.68 318.166L228.463 318.406C227.827 319.096 227.229 319.813 226.621 320.567L226.225 321.092C225.211 322.455 224.288 323.884 223.463 325.369C222.994 326.197 222.542 327.025 222.165 327.853C220.903 330.377 219.989 333.06 219.449 335.829C218.464 341.919 219.854 348.266 218.362 354.228C216.521 361.587 210.693 367.235 207.406 374.07C201.182 386.949 204.708 402.064 205.961 416.286C207.664 435.604 204.902 455.006 202.149 474.195C200.688 484.4 199.227 494.615 197.766 504.838C194.084 530.498 190.401 556.158 186.718 581.818C185.374 591.219 183.781 601.136 177.511 608.394H177.575C177.575 608.394 177.575 608.45 177.511 608.468C179.393 609.29 181.395 609.806 183.44 609.995V609.995C191.625 610.814 200.298 606.858 207.664 602.535C213.497 599.167 219.021 595.291 224.172 590.953C223.417 593.712 222.607 596.721 221.741 599.959C221.744 599.989 221.744 600.02 221.741 600.051V600.051C211.347 639.608 194.627 712.126 194.627 712.126C194.627 712.126 193.108 715.281 191.137 719.982H450.775C447.736 716.302 444.91 712.779 442.7 709.936L441.807 708.657ZM249.565 342.894C249.629 342.784 249.675 342.682 249.74 342.581C249.74 342.876 249.74 343.161 249.74 343.437C249.74 343.713 249.74 343.961 249.74 344.219C249.74 344.476 249.74 344.449 249.74 344.578C249.74 344.706 249.74 344.578 249.74 344.578C249.74 344.955 249.657 345.332 249.593 345.709C249.593 345.709 249.593 345.755 249.593 345.792L250.513 346.132L251.581 346.574C257.891 349.064 264.281 351.318 270.75 353.335C271.413 353.547 272.085 353.749 272.757 353.942L272.896 355.083C273.061 356.251 273.218 357.438 273.365 358.625C273.365 358.625 273.365 358.68 273.365 358.717C273.779 362.001 274.184 365.276 274.544 368.477C274.544 368.477 257.64 362.038 257.851 371.817C257.842 371.991 257.842 372.166 257.851 372.341C257.833 372.574 257.833 372.807 257.851 373.04C258.008 380.657 260.392 385.174 260.871 387.492C260.842 387.588 260.792 387.676 260.724 387.75C260.315 388.638 260.175 389.626 260.319 390.592C260.303 392.238 260.432 393.882 260.705 395.505C260.208 395.808 259.72 396.112 259.232 396.425C258.864 396.655 258.514 396.912 258.155 397.17C255.896 389.342 252.942 381.731 249.326 374.429C246.794 369.222 243.949 363.795 243.976 358.082C243.976 357.714 243.976 357.337 244.022 356.96C244.125 355.304 244.441 353.668 244.961 352.093C245.173 351.495 245.403 350.907 245.661 350.327C246.263 348.95 246.936 347.605 247.678 346.298C248.156 345.433 248.663 344.578 249.151 343.713C249.307 343.455 249.454 343.188 249.602 342.931L249.565 342.894ZM662.959 141.733C662.83 141.513 662.738 141.292 662.637 141.089C662.637 140.997 662.545 140.924 662.508 140.832C662.308 140.926 662.102 141.009 661.891 141.08C661.486 141.237 661.072 141.384 660.648 141.503C660.225 141.623 660.05 141.687 659.728 141.761L658.908 141.973L658.982 142.138C659.323 142.065 659.654 142 659.995 141.908L660.087 143.049C660.473 143.049 660.833 142.994 661.182 142.994H661.68C662.398 142.994 663.024 142.994 663.521 142.994C663.328 142.58 663.125 142.147 662.959 141.733Z" fill="url(#paint1_linear_325_2)"/>
<path d="M461.786 276.852L456.262 279.29C456.262 279.29 420.254 419.064 420.254 430.361C420.254 441.657 496.607 504.516 496.607 504.516L508.521 424.17C508.521 424.17 491.414 239.917 461.786 276.852Z" fill="#E8F5FF"/>
<path d="M629.271 232.392L597.369 215.76C595.582 208.149 592.411 200.93 588.014 194.464C583.346 187.73 577.141 181.115 569.407 177.666C549.86 168.908 652.086 122.939 652.086 122.939C653.696 128.461 655.592 133.896 657.766 139.222C663.033 152.211 671.77 169.009 683.031 173.793C702.172 181.934 629.271 232.392 629.271 232.392Z" fill="#FFC1C7"/>
<path opacity="0.1" d="M657.766 139.222C653.399 154.571 644.315 168.161 631.799 178.073C619.284 187.985 603.968 193.719 588.014 194.464C583.346 187.73 577.141 181.115 569.407 177.666C549.86 168.908 652.086 122.939 652.086 122.939C653.696 128.461 655.592 133.896 657.766 139.222V139.222Z" fill="black"/>
<path d="M660.639 116.012C660.643 131.066 656.178 145.782 647.811 158.3C639.443 170.818 627.547 180.576 613.629 186.339C599.711 192.101 584.394 193.611 569.618 190.675C554.841 187.74 541.267 180.492 530.613 169.849C519.959 159.205 512.703 145.643 509.764 130.879C506.824 116.115 508.333 100.811 514.099 86.904C519.865 72.9966 529.629 61.1101 542.157 52.7478C554.684 44.3855 569.413 39.9231 584.479 39.9249C594.493 39.8786 604.416 41.815 613.677 45.6222C622.937 49.4295 631.351 55.0321 638.432 62.1066C645.514 69.181 651.122 77.5872 654.933 86.8394C658.745 96.0917 660.684 106.007 660.639 116.012V116.012Z" fill="#FFC1C7"/>
<path d="M671.632 222.623L650.861 271.048L632.539 303.19H573.891L556.784 259.245L563.717 213.672H608.509L637.428 212.043L647.197 208.787L653.495 212.356L671.632 222.623Z" fill="#575A89"/>
<path opacity="0.1" d="M664.479 158.071C664.479 158.071 677.433 160.831 665.832 170.334C654.231 179.837 614.208 210.056 614.208 210.056C614.208 210.056 628.267 222.567 625.358 237.222L671.936 211.28L680.222 169.773C680.222 169.773 681.152 157.298 664.479 158.071Z" fill="black"/>
<path opacity="0.1" d="M623.369 210.056L593.741 214.941C593.741 214.941 599.855 237.525 596.798 243.937C596.705 244.137 596.628 244.343 596.568 244.554L584.479 277.202L593.538 302.84L624.898 260.11L614.208 243.937C614.208 243.937 625.505 228.979 632.226 223.791C638.947 218.603 623.369 210.056 623.369 210.056Z" fill="black"/>
<path d="M623.369 208.796L593.741 213.672C593.741 213.672 599.855 236.256 596.798 242.668C596.705 242.867 596.628 243.073 596.568 243.284L584.479 275.932L593.538 301.571L624.898 258.813L614.208 242.64C614.208 242.64 625.505 227.682 632.226 222.494C638.947 217.305 623.369 208.796 623.369 208.796Z" fill="#DCE6F2"/>
<path d="M665.721 155.633C665.721 155.633 678.676 158.393 667.066 167.896C655.456 177.399 614.208 210.056 614.208 210.056C614.208 210.056 629.483 220.13 626.582 234.775L673.161 208.842L681.447 167.335C681.447 167.335 682.368 154.861 665.721 155.633Z" fill="#575A89"/>
<path opacity="0.1" d="M590.049 197.343C590.049 197.343 592.876 202.623 605.351 212.145C605.351 212.145 584.58 223.184 592.526 238.703L560.752 230.424L555.863 215.162L590.049 197.343Z" fill="black"/>
<path d="M588.825 196.129C588.825 196.129 591.651 201.409 604.127 210.93C604.127 210.93 583.356 221.914 591.301 237.479L559.537 229.2L554.648 213.948L588.825 196.129Z" fill="#575A89"/>
<path opacity="0.1" d="M671.632 222.623L650.861 271.048L632.576 303.19H573.891L556.784 259.245L563.708 213.672H576.165C575.962 224.306 579.848 236.799 579.599 241.444C579.176 249.08 590.997 290.274 590.997 290.274C590.997 290.274 615.737 250.294 625.505 246.734C631.646 244.498 644.656 225.898 653.485 212.356L671.632 222.623Z" fill="black"/>
<path d="M753.455 477.452L751.347 480.101C751.347 480.101 766.621 556.704 762.395 574.099C761.677 577.235 761.266 580.433 761.17 583.648V583.786C760.425 601.486 765.774 624.456 765.774 624.456C765.774 624.456 770.046 692.163 767.615 720.009H481.627C479.952 678.833 478.147 625.487 479.786 619.572C482.548 609.811 488.072 574.403 488.072 574.403L488.68 557.624C488.68 557.624 488.68 541.405 489.177 523.338C489.389 515.215 489.702 506.687 490.153 499.125C490.733 489.613 491.543 481.601 492.657 477.663C493.344 474.679 493.738 471.635 493.836 468.575C493.836 468.289 493.836 467.995 493.891 467.701C493.891 466.781 493.983 465.787 494.02 464.766C494.02 464.481 494.02 464.196 494.02 463.846C494.195 457.922 494.131 450.894 493.937 443.608C493.937 443.212 493.937 442.807 493.937 442.403C493.781 436.938 493.55 431.363 493.293 426.065C492.492 409.506 491.451 395.505 491.451 395.505L456.327 279.226L465.791 255.933L492.059 239.853L540.626 210.553C564.316 191.097 579.912 193.433 585.86 195.568C586.438 195.764 587.003 195.995 587.554 196.257C587.738 196.349 587.885 196.423 588.024 196.506C588.213 196.595 588.394 196.7 588.567 196.819V196.819C586.938 197.602 585.523 198.766 584.442 200.213C583.224 201.86 582.356 203.738 581.892 205.733C581.581 206.969 581.362 208.227 581.238 209.495C581.118 210.829 581.072 212.209 581.072 213.598C581.138 216.644 581.399 219.683 581.855 222.696C581.855 222.751 581.855 222.825 581.855 222.899C582.159 225.051 582.536 227.158 582.904 229.136C582.9 229.169 582.9 229.203 582.904 229.237C583.328 231.546 583.752 233.68 584.037 235.52C584.092 235.851 584.138 236.155 584.184 236.44C584.387 237.656 584.483 238.887 584.47 240.12C584.573 243.096 584.974 246.054 585.667 248.951C585.906 250.165 586.182 251.462 586.486 252.815C586.9 254.655 587.351 256.66 587.839 258.702C588.106 259.825 588.392 260.984 588.686 262.134C588.797 262.593 588.917 263.053 589.027 263.523L589.211 264.249C591.172 272.041 593.299 279.796 594.607 284.488C595.38 287.248 595.868 288.949 595.868 288.949C595.868 288.949 609.734 266.549 620.8 253.799C620.966 253.615 621.113 253.44 621.27 253.275C622.366 252.014 623.443 250.864 624.474 249.853C626.73 247.608 628.755 246.007 630.385 245.418C630.732 245.291 631.068 245.134 631.389 244.949C635.918 242.383 643.229 233.064 650.07 223.303C650.742 222.383 651.395 221.381 652.058 220.433C653.577 218.244 655.05 216.045 656.441 213.939C657.509 212.329 658.531 210.765 659.497 209.274C664.101 202.117 667.342 196.782 667.342 196.782L673.732 196.497L674.846 196.441H675.591L704.603 195.098C704.603 195.098 705.855 195.31 707.917 195.724C708.028 195.724 708.138 195.724 708.258 195.798C718.551 197.84 747.148 204.307 748.897 213.276C751.034 224.26 797.161 238.915 797.161 238.915C797.768 246.274 809.065 251.122 809.065 251.122C809.065 251.122 826.172 296.29 821.596 313.99C817.075 331.469 833.362 374.705 833.795 375.919L830.674 379.857L753.455 477.452Z" fill="#E8F5FF"/>
<path opacity="0.1" d="M664.469 154.861C664.469 154.861 692.707 146.857 699.124 163.333C705.542 179.809 719.895 246.348 719.895 246.348C719.895 246.348 682.625 253.367 672.857 246.348C667.127 242.182 660.035 240.329 652.997 241.159L631.922 255.501L625.699 253.661C625.699 253.661 659.415 203.58 666.743 186.561C674.072 169.543 676.549 161.935 664.469 154.861Z" fill="black"/>
<path d="M663.245 151.181C663.245 151.181 691.501 143.178 697.946 159.654C704.391 176.129 718.717 242.668 718.717 242.668C718.717 242.668 681.456 249.687 671.678 242.668C665.952 238.502 658.863 236.649 651.828 237.479L630.735 251.821L624.511 249.981C624.511 249.981 658.227 199.9 665.556 182.882C672.884 165.863 675.324 158.274 663.245 151.181Z" fill="#E8F5FF"/>
<path opacity="0.1" d="M473.7 416.626C473.7 416.626 494.775 421.814 498.752 433.718C502.73 445.622 483.174 445.926 483.174 445.926C483.174 445.926 471.26 424.869 473.7 416.626Z" fill="black"/>
<path opacity="0.1" d="M552.199 504.516C552.199 504.516 500.585 610.115 512.499 620.188C524.412 630.261 552.199 504.516 552.199 504.516Z" fill="black"/>
<path opacity="0.1" d="M623.369 426.699C623.369 426.699 664.607 529.271 656.358 545.112C648.108 560.953 674.072 545.112 674.072 545.112L623.369 426.699Z" fill="black"/>
<path d="M680.793 528.021C680.793 528.021 541.51 534.736 582.14 578.074C622.771 621.412 706.149 579.914 706.149 579.914L680.793 528.021Z" fill="#FFC1C7"/>
<path opacity="0.1" d="M660.639 116.012C660.652 125.993 658.69 135.879 654.866 145.1C653.587 145.247 652.307 145.339 651.073 145.395C649.232 141.356 650.217 136.692 650.254 132.249C650.29 127.805 648.652 122.58 644.37 121.384C635.835 118.983 629.943 134.926 621.528 132.046C615.083 129.857 616.768 120.087 613.057 114.448C610.12 109.986 604.237 108.726 599.661 105.93C589.929 99.9593 590.224 90.4104 585.703 81.3767C580.971 71.9107 570.972 74.7073 562.29 80.2912C555.698 84.5413 550.008 90.2356 542.955 93.621C536.851 96.5647 529.992 97.6319 523.225 97.7883C519.059 97.9496 514.891 97.5096 510.85 96.4819C515.603 78.6297 526.692 63.1141 542.049 52.8283C557.407 42.5426 575.984 38.1891 594.317 40.5795C612.65 42.97 629.487 51.9413 641.688 65.8205C653.889 79.6996 660.622 97.5391 660.63 116.012H660.639Z" fill="black"/>
<path d="M562.318 77.8534C555.716 82.1035 550.035 87.7886 542.983 91.1924C536.879 94.1269 530.019 95.194 523.252 95.3504C514.966 95.5344 506.044 94.0809 500.382 88.1014C495.18 82.5818 493.937 74.0909 496.138 66.8511C498.338 59.6112 503.614 53.6041 509.81 49.2528C516.006 44.9016 523.197 41.8934 527.303 35.6655C529.476 32.3722 530.526 28.4901 532.33 24.9851C538.103 13.7712 551.085 7.6997 563.634 6.94536C576.183 6.19102 588.622 9.92592 600.573 13.9736C612.523 18.0213 624.566 22.4737 637.18 23.3109C642.796 23.6604 648.633 23.3109 653.844 25.4359C660.851 28.2785 665.445 35.0768 668.576 41.9946C672.083 49.7956 674.266 58.3141 673.897 66.8327C673.124 85.0196 661.099 102.866 666.384 120.29C667.784 124.935 670.408 129.701 669.008 134.346C666.964 141.126 658.209 142.672 651.128 142.994C649.287 138.955 650.272 134.282 650.309 129.848C650.346 125.414 648.707 120.179 644.435 118.983C635.891 116.601 629.998 132.516 621.601 129.645C615.203 127.447 616.86 117.686 613.14 112.047C610.203 107.576 604.311 106.325 599.744 103.529C590.012 97.5583 590.307 88.0094 585.786 78.9757C581.017 69.4637 571.009 72.2602 562.318 77.8534Z" fill="#99607E"/>
<path d="M427.26 427.914L420.235 430.361C420.235 430.361 422.997 471.868 413.79 483.772C404.583 495.676 444.026 525.27 444.026 525.27C444.026 525.27 498.09 524.966 499.618 520.67C501.146 516.374 496.856 443.764 496.856 443.764C496.856 443.764 467.835 432.467 470.275 414.464C470.275 414.464 461.418 456.882 448.289 455.052C435.16 453.221 420.254 442.265 427.26 427.914Z" fill="#E8F5FF"/>
<path opacity="0.1" d="M450.692 467.894C460.928 467.894 469.226 460.311 469.226 450.958C469.226 441.604 460.928 434.022 450.692 434.022C440.456 434.022 432.158 441.604 432.158 450.958C432.158 460.311 440.456 467.894 450.692 467.894Z" fill="black"/>
<path d="M470.957 429.137C470.957 429.137 467.274 316.832 435.215 341.854C403.156 366.876 402.843 396.802 408.947 405.642C415.052 414.483 434.626 458.74 434.626 458.74C437.687 460.513 441.126 461.536 444.66 461.725C448.194 461.915 451.722 461.264 454.956 459.828C458.19 458.392 461.037 456.211 463.265 453.464C465.492 450.716 467.036 447.48 467.771 444.021L470.957 429.137Z" fill="#FFC1C7"/>
<path opacity="0.1" d="M670.942 144.668C670.792 144.175 670.505 143.734 670.113 143.398C668.53 141.954 665.123 141.448 659.985 141.89L660.197 144.318C667.047 143.73 668.401 145.091 668.576 145.321V145.551L668.787 145.855C669.641 147.002 670.246 148.314 670.563 149.708C670.881 151.102 670.903 152.547 670.629 153.95C669.128 161.447 659.912 167.418 659.82 167.482L659.599 167.611L659.461 167.823C655.483 173.719 632.99 190.361 627.107 194.666L626.592 194.077C623.958 196.359 600.812 216.606 599.56 224.361C598.75 229.228 593.262 231.114 591.274 231.638C589.174 230.046 582.361 224.628 578.816 218.557C575.493 212.844 588.871 201.694 590.049 197.343L588.208 195.457C588.014 196.156 570.834 212.2 575.612 220.396C579.443 226.974 586.44 232.604 588.889 234.462C588.106 241.564 583.236 283.264 575.751 293.144C566.452 305.425 558.635 367.318 559.5 388.927C560.264 408.126 555.247 444.39 538.49 459.964C535.589 462.779 532.089 464.902 528.252 466.177C524.414 467.451 520.339 467.843 516.329 467.324H516.126H515.923C515.684 467.324 491.378 469.807 470.956 452.605C454.246 438.557 444.781 415.633 442.811 384.447H442.406L442.24 375.368C446.771 374.661 450.851 372.227 453.624 368.578C456.396 364.928 457.645 360.347 457.108 355.797C456.571 351.246 454.29 347.081 450.744 344.176C447.197 341.271 442.662 339.853 438.091 340.219C433.52 340.585 429.269 342.707 426.231 346.139C423.193 349.571 421.604 354.046 421.799 358.624C421.994 363.202 423.958 367.526 427.277 370.687C430.596 373.849 435.012 375.603 439.597 375.579H439.8L439.966 384.604L439.155 384.659C441.181 416.856 451.125 440.673 468.618 455.383C481.914 466.391 498.898 471.945 516.135 470.92C517.358 471.054 518.588 471.122 519.818 471.123C527.719 471.163 535.321 468.109 540.994 462.614C558.644 446.193 564.012 408.595 563.174 388.743C562.253 365.846 570.457 306.18 578.688 295.315C586.753 284.653 591.642 243.109 592.498 235.06C595.417 234.241 602.018 231.656 603.141 224.941C603.952 220.084 619.41 205.116 628.921 196.828L628.636 196.497C633.755 192.762 649.674 180.987 657.564 173.425C660.013 171.079 662.444 168.733 664.985 166.498C668.042 163.793 671.927 159.497 672.949 154.419C673.297 152.743 673.299 151.013 672.954 149.336C672.609 147.659 671.924 146.071 670.942 144.668V144.668Z" fill="black"/>
<path d="M588.576 233.883C588.189 233.616 579.019 227.057 574.425 219.164C569.656 210.967 586.836 194.933 587.02 194.234L588.861 196.12C587.692 200.462 574.314 211.62 577.638 217.324C581.827 224.527 590.648 230.828 590.74 230.893L588.576 233.883Z" fill="#353146"/>
<path d="M625.91 196.451L624.474 194.473C624.769 194.261 653.688 173.36 658.245 166.599L658.393 166.397L658.604 166.259C658.696 166.194 667.913 160.233 669.413 152.726C669.69 151.325 669.669 149.881 669.352 148.488C669.035 147.095 668.428 145.784 667.572 144.64L667.36 144.327V144.107C667.176 143.868 665.823 142.515 658.973 143.104L658.761 140.666C663.908 140.225 667.305 140.731 668.889 142.175C669.283 142.514 669.573 142.957 669.726 143.454C670.722 144.852 671.42 146.44 671.778 148.119C672.136 149.797 672.146 151.531 671.807 153.214C670.785 158.301 666.909 162.597 663.843 165.293C661.311 167.528 658.871 169.892 656.432 172.22C647.178 181.079 626.923 195.724 625.91 196.451Z" fill="#E8F5FF"/>
<path d="M441.052 372.165L438.612 372.209L438.884 387.027L441.324 386.982L441.052 372.165Z" fill="#E8F5FF"/>
<path d="M438.41 374.411C448.249 374.411 456.225 366.441 456.225 356.61C456.225 346.779 448.249 338.81 438.41 338.81C428.571 338.81 420.594 346.779 420.594 356.61C420.594 366.441 428.571 374.411 438.41 374.411Z" fill="#45B69C"/>
<path d="M438.41 371.393C446.581 371.393 453.205 364.774 453.205 356.61C453.205 348.445 446.581 341.827 438.41 341.827C430.238 341.827 423.614 348.445 423.614 356.61C423.614 364.774 430.238 371.393 438.41 371.393Z" fill="#E8F5FF"/>
<path d="M518.658 469.936C517.428 469.938 516.198 469.873 514.975 469.743C497.739 470.757 480.759 465.205 467.458 454.205C449.965 439.486 440.039 415.697 437.995 383.472L441.678 383.242C443.649 414.427 453.113 437.361 469.833 451.399C490.254 468.556 514.552 466.118 514.791 466.118H514.994H515.196C519.208 466.635 523.284 466.242 527.122 464.968C530.961 463.693 534.462 461.571 537.367 458.759C554.114 443.184 559.132 406.921 558.368 387.722C557.447 366.094 565.264 304.202 574.572 291.93C582.72 281.176 587.775 232.705 587.83 232.217L587.968 230.837L589.331 230.598C589.414 230.598 597.369 229.09 598.363 223.147C599.652 215.401 622.762 195.153 625.386 192.863L627.789 195.623C618.241 203.902 602.782 218.878 602.009 223.745C600.886 230.479 594.284 233.054 591.375 233.864C590.454 241.923 585.602 283.457 577.564 294.119C569.333 304.984 561.13 364.65 562.051 387.547C562.842 407.399 557.53 445.006 539.88 461.417C534.197 466.926 526.576 469.985 518.658 469.936Z" fill="#353146"/>
<g opacity="0.1">
<path d="M668.484 94.2649C669.993 88.6901 671.816 83.0785 673.087 77.4302C671.568 83.1061 669.736 88.6901 668.484 94.2649Z" fill="black"/>
<path d="M653.08 138.072C651.239 134.033 652.224 129.36 652.261 124.926C652.298 120.492 650.659 115.304 646.387 114.062C637.843 111.679 631.95 127.603 623.553 124.724C617.108 122.525 618.812 112.765 615.092 107.126C612.155 102.655 606.272 101.404 601.705 98.607C591.964 92.6366 592.259 83.0878 587.747 74.0541C583.006 64.5788 573.016 67.3754 564.325 72.9686C557.723 77.2186 552.043 82.913 544.99 86.3075C538.886 89.2421 532.027 90.3092 525.259 90.4656C517.019 90.6588 508.051 89.1961 502.389 83.2166C498.025 78.6169 496.451 71.8739 497.353 65.554C497.196 65.9863 497.058 66.4187 496.92 66.8511C494.711 74.0909 496 82.6002 501.165 88.1014C506.827 94.0809 515.795 95.5344 524.035 95.3504C530.811 95.194 537.661 94.1269 543.775 91.1923C550.846 87.7886 556.526 82.1035 563.109 77.8534C571.801 72.2602 581.8 69.4637 586.532 78.9389C591.043 87.9726 590.758 97.5215 600.49 103.492C605.093 106.252 610.94 107.539 613.886 112.01C617.569 117.668 615.939 127.41 622.347 129.609C630.735 132.479 636.627 116.564 645.171 118.947C649.443 120.142 651.091 125.386 651.045 129.811C650.999 134.236 650.042 138.918 651.865 142.957C658.945 142.635 667.701 141.117 669.754 134.309C670.037 133.332 670.167 132.318 670.141 131.301C667.148 136.462 659.451 137.787 653.08 138.072Z" fill="black"/>
</g>
<path opacity="0.1" d="M819.478 364.742L830.168 376.039C830.168 376.039 838.721 438.291 842.993 444.114C847.265 449.937 857.356 473.101 847.882 490.496C847.882 490.496 844.825 499.963 846.657 503.927C848.49 507.892 832.921 527.735 832.921 527.735C832.921 527.735 812.453 546.042 808.172 548.792C803.891 551.543 781.297 573.511 773.664 573.814C766.032 574.118 763.537 583.584 763.537 583.584L720.466 585.111C720.466 585.111 696.675 583.869 691.501 587.227C691.501 587.227 694.263 550.908 667.682 527.1L701.583 514.893C701.583 514.893 714.417 509.373 718.385 503.605C720.882 500.069 724.423 497.403 728.513 495.979C728.513 495.979 737.978 489.264 738.282 485.603C738.586 481.941 749.855 477.452 749.855 477.452L743.475 423.038L746.835 332.701C746.835 332.701 757.524 257.01 780.128 261.287C802.731 265.565 819.478 364.742 819.478 364.742Z" fill="black"/>
<path d="M823.161 364.742L833.85 376.039C833.85 376.039 842.404 438.291 846.676 444.114C850.948 449.937 861.039 473.101 851.565 490.496C851.565 490.496 848.517 499.963 850.349 503.927C852.182 507.892 836.603 527.735 836.603 527.735C836.603 527.735 816.136 546.042 811.855 548.792C807.574 551.543 784.98 573.511 777.347 573.814C769.714 574.118 767.219 583.584 767.219 583.584L724.149 585.111C724.149 585.111 700.34 583.869 695.184 587.227C695.184 587.227 697.946 550.908 671.365 527.1L705.265 514.893C705.265 514.893 718.1 509.373 722.068 503.605C724.565 500.069 728.106 497.403 732.196 495.979C732.196 495.979 741.661 489.264 741.965 485.603C742.268 481.941 753.538 477.452 753.538 477.452L747.157 423.038L750.518 332.701C750.518 332.701 761.207 257.01 783.81 261.287C806.414 265.565 823.161 364.742 823.161 364.742Z" fill="#E8F5FF"/>
<path opacity="0.1" d="M783.424 455.999C783.424 455.999 814.884 447.72 823.133 457.839C831.383 467.958 783.424 455.999 783.424 455.999Z" fill="black"/>
<path opacity="0.1" d="M776.095 469.881C786.784 477.36 819.773 477.663 819.773 477.663L776.095 469.881Z" fill="black"/>
<path opacity="0.1" d="M792.281 507.267C793.202 507.57 814.958 530.771 824.091 523.752C833.224 516.733 792.281 507.267 792.281 507.267Z" fill="black"/>
<path opacity="0.1" d="M499.277 312.555C499.277 312.555 505.667 356.509 502.518 374.411C499.369 392.312 510.86 414.492 510.86 414.492L499.277 312.555Z" fill="black"/>
<path d="M357.821 330.429C350.455 336.197 345.078 349.849 341.184 364.853C334.389 391.025 332.17 421.373 332.17 421.373C332.17 421.373 273.522 407.942 277.794 401.843C280.482 398.007 276.873 369.103 273.862 348.147C272.067 335.764 270.465 326.151 270.465 326.151C270.465 326.151 377.984 314.551 357.821 330.429Z" fill="#FFCCD0"/>
<path opacity="0.1" d="M357.821 329.205C350.455 334.982 345.078 348.625 341.184 363.629C329.499 367.174 317.071 367.494 305.219 364.554C293.367 361.615 282.532 355.526 273.862 346.932C272.067 334.541 270.465 324.928 270.465 324.928C270.465 324.928 377.984 313.336 357.821 329.205Z" fill="black"/>
<path d="M389.346 296.327C389.352 312.328 383.692 327.814 373.369 340.047C363.046 352.279 348.725 360.468 332.94 363.164C317.155 365.86 300.924 362.89 287.12 354.779C273.316 346.668 262.829 333.939 257.515 318.846C252.201 303.752 252.403 287.266 258.084 272.306C263.765 257.347 274.56 244.878 288.558 237.106C302.556 229.334 318.854 226.76 334.568 229.841C350.283 232.921 364.4 241.457 374.421 253.937C384.078 265.959 389.343 280.912 389.346 296.327V296.327Z" fill="#FFCCD0"/>
<path opacity="0.1" d="M442.82 720.009H423.485L421.856 685.889L420.152 650.573C420.152 650.573 424.544 649.92 431.541 648.945L434.368 648.567H434.598C436.126 655.734 437.636 663.093 439.091 670.443C441.512 683.492 442.773 696.729 442.857 710C442.857 710.92 442.857 711.84 442.857 712.705C442.912 715.161 442.857 717.617 442.82 720.009Z" fill="black"/>
<path d="M439.109 720.009H196.634C197.684 717.626 198.383 716.182 198.383 716.182C198.383 716.182 217.782 631.383 227.643 595.506C227.646 595.475 227.646 595.445 227.643 595.414C228.875 590.54 230.363 585.735 232.099 581.017V581.017C232.211 580.696 232.356 580.388 232.532 580.097C237.412 572.167 243.525 563.621 234.972 551.414C226.419 539.206 229.448 485.492 229.448 485.492C229.448 485.492 239.833 439.707 250.826 415.292C252.495 411.51 254.862 408.077 257.805 405.173C258.762 404.238 259.783 403.371 260.862 402.579V402.579C261.682 401.963 262.536 401.395 263.421 400.877L263.596 400.766C268.214 398.15 273.343 396.56 278.631 396.102C282.388 395.71 286.181 395.815 289.91 396.415C307.735 399.028 322.006 403.397 333.349 408.374C364.091 421.87 373.399 439.955 373.583 440.333L373.657 440.489C374.891 443.368 392.936 485.464 399.437 505.105C401.121 510.219 402.042 513.816 401.674 514.801C399.832 519.676 415.724 580.713 415.724 580.713C415.724 580.713 423.089 610.151 430.455 644.658C430.777 646.093 431.081 647.528 431.376 648.981C432.692 655.246 434 661.63 435.261 668.005C437.705 681.144 438.965 694.475 439.027 707.838C439.162 712.003 439.189 716.059 439.109 720.009Z" fill="#FF748E"/>
<path opacity="0.1" d="M277.186 375.11C277.186 375.11 260.457 368.67 260.659 378.44C260.862 388.209 264.738 392.883 263.514 394.308C262.289 395.734 264.121 404.28 264.121 404.28C264.121 404.28 286.724 404.28 297.11 408.954C307.495 413.627 345.778 422.992 350.667 425.844C355.556 428.695 373.685 441.482 373.685 441.482L375.314 417.27C375.314 417.27 356.578 401.806 325.836 393.876C295.094 385.946 277.186 375.11 277.186 375.11Z" fill="black"/>
<path d="M277.186 373.886C277.186 373.886 260.457 367.447 260.659 377.217C260.862 386.986 264.738 391.659 263.514 393.085C262.289 394.511 264.121 403.057 264.121 403.057C264.121 403.057 286.724 403.057 297.11 407.74C307.495 412.422 345.778 421.778 350.667 424.62C355.556 427.463 373.685 440.259 373.685 440.259L375.333 416.12C375.333 416.12 356.596 400.656 325.854 392.727C295.112 384.797 277.186 373.886 277.186 373.886Z" fill="#FF748E"/>
<path opacity="0.1" d="M327.686 432.154C327.686 432.154 359.653 466.734 358.023 476.311C356.394 485.887 327.686 432.154 327.686 432.154Z" fill="black"/>
<path opacity="0.1" d="M275.759 557.071C275.759 557.071 252.327 578.644 245.422 579.867C238.517 581.091 250.716 585.157 258.652 581.909C266.589 578.662 283.511 570.116 283.511 570.116L275.759 557.071Z" fill="black"/>
<path d="M448.63 720.009H393.986C386.344 713.386 379.117 707.25 374.513 703.561C367.148 697.655 361.835 688.962 358.447 681.97C357.683 680.379 357.02 678.888 356.458 677.536C355.453 675.207 354.568 672.827 353.807 670.407L394.271 646.396C396.508 648.297 398.609 650.35 400.56 652.542L401.048 653.103C403.294 655.752 405.274 658.76 405.449 661.226C405.651 664.096 413.643 675.199 421.81 685.861C430.096 696.707 438.585 707.075 439.146 707.774C439.146 707.774 440.546 709.678 442.829 712.604C444.44 714.72 446.429 717.259 448.63 720.009Z" fill="#FFCCD0"/>
<path opacity="0.1" d="M374.421 253.937C372.478 258.316 370.738 262.86 370.48 267.736C369.753 281.811 370.932 313.281 355.335 320.346C347.61 323.824 339.342 316.188 330.872 316.004C324.777 315.876 319.188 319.739 315.469 324.569C311.749 329.399 309.438 335.13 306.74 340.594C304.285 345.554 301.456 350.321 298.279 354.853C297.33 356.24 296.283 357.559 295.149 358.799C285.639 354.79 277.17 348.664 270.388 340.889C263.606 333.114 258.69 323.894 256.014 313.933C253.338 303.972 252.974 293.532 254.948 283.409C256.922 273.286 261.183 263.746 267.405 255.518C273.628 247.289 281.649 240.588 290.856 235.926C300.063 231.263 310.214 228.762 320.536 228.613C330.857 228.464 341.076 230.671 350.414 235.066C359.752 239.461 367.963 245.928 374.421 253.974V253.937Z" fill="black"/>
<path d="M369.256 265.252C368.519 279.327 369.707 310.798 354.101 317.853C346.377 321.331 338.109 313.705 329.638 313.521C323.543 313.383 317.964 317.255 314.235 322.076C310.506 326.896 308.214 332.637 305.507 338.11C303.05 343.07 300.222 347.836 297.045 352.369C295.149 355.055 293.05 357.751 290.131 359.259C285.049 361.909 278.889 360.419 273.439 358.717C266.368 356.49 259.401 353.982 252.539 351.192C252.696 350.156 252.776 349.111 252.778 348.064C252.576 348.45 252.355 348.809 252.134 349.195L251.701 349.95C250.918 351.33 250.154 352.71 249.454 354.126C249.187 354.669 248.93 355.23 248.699 355.791C247.774 357.88 247.192 360.104 246.978 362.378C246.508 368.514 249.537 374.337 252.226 379.857C262.565 401.208 268.955 426.175 261.175 448.575C257.805 458.317 251.968 466.974 247.705 476.385C240.253 493.053 238.06 511.593 241.417 529.538C243.544 540.688 247.806 551.727 246.757 563.033C244.915 582.489 228.122 596.969 211.301 606.922C202.213 612.276 191.091 617.042 181.442 612.81C187.593 605.634 189.176 595.708 190.502 586.344C194.13 560.8 197.766 535.245 201.412 509.677C202.867 499.502 204.319 489.328 205.767 479.154C208.474 460.038 211.218 440.71 209.524 421.474C208.29 407.298 204.81 392.248 210.96 379.415C214.21 372.617 220.001 366.987 221.806 359.664C223.288 353.712 221.907 347.383 222.883 341.321C223.417 338.563 224.322 335.889 225.572 333.373C227.163 329.958 229.241 326.791 231.74 323.971C229.273 323.253 226.971 322.269 225.572 320.208C229.531 317.633 230.129 311.828 228.334 307.467C226.538 303.107 222.948 299.786 219.716 296.346C216.484 292.905 213.372 288.894 212.967 284.202C212.185 275.27 221.115 268.352 222.69 259.539C224.283 250.57 217.985 241.849 218.491 232.769C219.081 221.795 229.171 213.819 239.133 209.192C254.167 202.238 270.773 199.382 287.268 200.912C300.691 202.182 313.683 206.331 327.069 207.94C335.144 208.86 343.329 208.952 351.348 210.369C359.368 211.786 367.405 214.776 373.049 220.654C387.928 236.155 370.103 248.914 369.256 265.252Z" fill="#FFE0D0"/>
<path opacity="0.1" d="M356.808 681.979C352.113 679.946 343.568 681.161 328.902 676.699C314.235 672.237 311.408 652.072 311.408 652.072V652.008C311.233 651.548 309.871 648.549 300.645 638.043C290.453 626.443 268.421 567.853 268.421 567.853C268.421 567.853 248.884 546.888 249.501 539.16C250.117 531.433 246.029 510.873 246.435 487.874C246.84 464.876 290.416 449.624 290.416 449.624C374.32 434.767 354.562 531.415 352.324 538.737C350.087 546.06 361.697 565.838 361.697 565.838C360.058 574.449 368.418 587.779 368.418 587.779C368.418 587.779 370.444 599.572 370.858 604.052C370.881 604.259 370.927 604.463 370.996 604.659C372.34 608.882 383.297 612.709 387.753 615.036C392.439 617.483 407.511 638.844 407.511 638.844C410.761 654.529 361.485 684.04 356.808 681.979Z" fill="black"/>
<path d="M359.248 678.299C354.562 676.257 346.008 677.481 331.351 673.01C316.693 668.539 313.857 648.393 313.857 648.393V648.328C313.692 647.859 312.32 644.869 303.094 634.364C292.902 622.763 270.87 564.164 270.87 564.164C270.87 564.164 251.333 543.208 251.94 535.481C252.548 527.753 248.479 507.193 248.884 484.213C249.289 461.233 292.838 445.99 292.838 445.99C376.741 431.133 356.983 527.781 354.746 535.104C352.508 542.426 364.118 562.205 364.118 562.205C362.48 570.815 370.84 584.145 370.84 584.145C370.84 584.145 372.865 595.938 373.289 600.418C373.304 600.626 373.347 600.83 373.418 601.026C374.762 605.248 385.718 609.075 390.183 611.402C394.861 613.84 409.942 635.21 409.942 635.21C413.21 650.867 363.934 680.379 359.248 678.299Z" fill="#FF748E"/>
<path opacity="0.1" d="M294.495 496.448C294.495 496.448 331.148 535.085 340.714 535.085C350.28 535.085 294.495 496.448 294.495 496.448Z" fill="black"/>
<path d="M359.248 678.3C354.562 676.258 346.008 677.481 331.351 673.01C316.693 668.54 313.857 648.393 313.857 648.393V648.329C323.571 641.889 348.172 623.702 357.867 617.051C364.689 612.387 370.26 605.534 373.519 600.989C374.863 605.212 385.819 609.039 390.285 611.366C394.962 613.804 410.043 635.174 410.043 635.174C413.21 650.868 363.934 680.379 359.248 678.3Z" fill="#FF748E"/>
<g opacity="0.1">
<path d="M225.627 320.31C225.673 320.384 225.737 320.448 225.793 320.522C226.069 320.172 226.354 319.822 226.649 319.491C226.335 319.796 225.993 320.07 225.627 320.31V320.31Z" fill="black"/>
<path d="M246.987 362.479C247.374 357.374 250.108 352.875 252.668 348.386C250.992 347.742 249.316 347.089 247.659 346.408C247.817 345.376 247.897 344.334 247.899 343.29C245.311 347.889 242.494 352.415 242.098 357.594C241.629 363.74 244.658 369.554 247.346 375.073C257.695 396.415 264.075 421.382 256.295 443.792C252.916 453.525 247.088 462.19 242.825 471.601C235.376 488.267 233.186 506.805 236.546 524.745C238.655 535.904 242.927 546.934 241.877 558.24C240.036 577.696 223.251 592.176 206.421 602.12C199.543 606.187 191.506 609.912 183.818 609.645C183.106 610.79 182.312 611.882 181.442 612.911C191.101 617.17 202.213 612.378 211.301 607.005C228.14 597.07 244.961 582.627 246.803 563.134C247.852 551.828 243.58 540.798 241.463 529.639C238.102 511.7 240.285 493.164 247.724 476.495C251.959 467.093 257.851 458.419 261.193 448.686C268.973 426.276 262.584 401.309 252.244 379.967C249.565 374.411 246.517 368.624 246.987 362.479Z" fill="black"/>
<path d="M373.031 220.764C372.125 219.836 371.153 218.975 370.121 218.188C381.28 232.65 365.168 244.94 364.367 260.505C363.649 274.58 364.827 306.06 349.222 313.107C341.506 316.593 333.229 308.958 324.768 308.774C318.664 308.645 313.084 312.518 309.355 317.338C305.626 322.159 303.334 327.899 300.636 333.363C298.175 338.322 295.344 343.089 292.166 347.622C290.324 350.318 288.17 353.004 285.242 354.522C280.178 357.162 274.019 355.681 268.559 353.97C263.25 352.302 257.989 350.462 252.778 348.45C252.767 349.408 252.687 350.365 252.539 351.311C259.407 354.108 266.377 356.616 273.448 358.836C278.898 360.547 285.058 362.028 290.131 359.388C293.05 357.87 295.167 355.175 297.055 352.48C300.235 347.952 303.064 343.189 305.516 338.23C308.223 332.765 310.506 327.016 314.244 322.196C317.982 317.375 323.552 313.511 329.647 313.64C338.118 313.824 346.395 321.46 354.11 317.973C369.716 310.926 368.529 279.446 369.256 265.372C370.103 249.006 387.928 236.256 373.031 220.764Z" fill="black"/>
</g>
<path opacity="0.1" d="M251.71 349.959C250.928 351.339 250.163 352.719 249.464 354.135C249.197 354.678 248.939 355.239 248.709 355.8C243.884 350.943 232.136 339.398 225.581 335.82C227.175 332.406 229.252 329.24 231.749 326.418C231.749 326.418 247.374 334.67 251.71 349.959Z" fill="black"/>
<path d="M252.143 349.205C248.525 332.839 231.749 323.98 231.749 323.98C229.25 326.801 227.172 329.967 225.581 333.382C232.495 337.163 245.238 349.84 249.464 354.136L252.143 349.205Z" fill="#FF748E"/>
</g>
<defs>
<linearGradient id="paint0_linear_325_2" x1="672.139" y1="87.7703" x2="672.139" y2="70.8621" gradientUnits="userSpaceOnUse">
<stop stop-color="#808080" stop-opacity="0.25"/>
<stop offset="0.54" stop-color="#808080" stop-opacity="0.12"/>
<stop offset="1" stop-color="#808080" stop-opacity="0.1"/>
</linearGradient>
<linearGradient id="paint1_linear_325_2" x1="518.198" y1="720.009" x2="518.198" y2="0.000110452" gradientUnits="userSpaceOnUse">
<stop stop-color="#808080" stop-opacity="0.25"/>
<stop offset="0.54" stop-color="#808080" stop-opacity="0.12"/>
<stop offset="1" stop-color="#808080" stop-opacity="0.1"/>
</linearGradient>
<clipPath id="clip0_325_2">
<rect width="1000" height="720" fill="white"/>
</clipPath>
</defs>
</svg>
